<?xml version="1.0" standalone="no"?>
<!DOCTYPE svg PUBLIC "-//W3C//DTD SVG 20010904//EN"
 "http://www.w3.org/TR/2001/REC-SVG-20010904/DTD/svg10.dtd">
<svg version="1.0" xmlns="http://www.w3.org/2000/svg"
 width="1024.000000pt" height="1024.000000pt" viewBox="0 0 1024.000000 1024.000000"
 preserveAspectRatio="xMidYMid meet">

<g transform="translate(0.000000,1024.000000) scale(0.100000,-0.100000)"
fill="#D31F3C" stroke="none">
<path d="M1804 10221 c-23 -10 -52 -34 -65 -52 -21 -30 -24 -46 -27 -151 l-4
-118 -776 0 c-495 0 -790 -4 -814 -10 -46 -13 -105 -77 -114 -124 -14 -77 21
-153 85 -186 40 -20 54 -20 937 -20 886 0 897 0 933 21 20 11 48 36 61 56 22
33 25 49 29 150 l3 113 169 0 169 0 0 -105 c0 -121 16 -167 72 -207 l33 -23
1936 -3 1936 -2 33 22 c70 48 89 99 90 236 l0 82 169 0 169 0 4 -119 c3 -129
11 -150 72 -195 27 -20 39 -21 434 -21 l407 0 34 24 c53 38 71 89 71 209 l0
102 85 0 c73 0 85 -2 85 -17 0 -9 9 -36 21 -60 22 -45 87 -93 127 -93 15 0 22
-8 27 -32 11 -51 40 -92 83 -116 l40 -22 791 0 791 0 0 -170 0 -170 -4702 0
c-5017 -1 -4746 2 -4800 -47 -11 -10 -29 -36 -39 -58 -18 -39 -19 -181 -19
-4080 l0 -4040 -67 -35 c-197 -102 -307 -334 -262 -552 39 -189 208 -358 397
-397 36 -7 291 -11 790 -11 801 0 793 -1 910 56 64 32 159 118 201 183 185
287 30 678 -304 767 -27 8 -89 14 -136 14 -79 0 -87 2 -96 23 -20 43 -103 135
-163 181 -125 94 -256 137 -414 137 -170 1 -300 -46 -437 -157 l-79 -64 0
3865 0 3865 4693 0 c2781 0 4708 4 4731 10 54 12 87 38 113 90 23 44 23 50 23
416 0 239 -4 383 -11 401 -15 42 -68 92 -109 103 -21 6 -303 10 -726 10 l-691
0 -7 39 c-8 54 -59 107 -118 122 -41 11 -47 16 -51 46 -8 48 -44 92 -91 114
-38 17 -72 19 -417 19 -373 0 -376 0 -419 -23 -69 -36 -90 -86 -90 -214 l0
-103 -170 0 -170 0 0 98 c-1 133 -34 201 -113 231 -18 7 -162 11 -405 11 -372
0 -378 -1 -416 -23 -74 -42 -95 -94 -96 -234 l0 -83 -1705 0 -1705 0 0 103 c0
128 -21 178 -90 214 -43 23 -46 23 -419 23 -345 0 -379 -2 -417 -19z m-464
-9230 c90 -46 154 -125 186 -230 36 -118 145 -162 259 -106 60 29 106 31 161
6 48 -22 80 -59 96 -112 21 -73 -21 -156 -96 -190 -39 -18 -81 -19 -751 -19
-668 0 -712 2 -750 19 -48 22 -69 44 -90 94 -20 49 -19 82 6 134 43 88 145
116 244 68 57 -28 122 -32 164 -11 36 19 91 82 91 104 0 32 57 137 96 175 74
74 139 97 254 94 65 -3 96 -9 130 -26z"/>
<path d="M9655 8516 c-37 -16 -70 -52 -84 -89 -8 -20 -11 -1111 -11 -3658 l0
-3630 -71 60 c-131 110 -274 163 -445 162 -158 0 -289 -43 -414 -137 -60 -46
-143 -138 -163 -181 -9 -21 -17 -23 -96 -23 -47 0 -108 -6 -136 -14 -238 -63
-402 -291 -382 -531 12 -133 64 -242 160 -332 63 -59 106 -86 183 -116 59 -22
62 -22 814 -25 537 -2 772 0 815 8 193 37 364 206 404 398 45 218 -65 451
-263 553 l-66 34 0 3701 0 3701 -23 44 c-41 77 -141 111 -222 75z m-460 -7528
c28 -15 69 -46 92 -70 41 -42 93 -137 93 -170 0 -22 55 -85 91 -104 42 -21
107 -17 164 11 61 30 113 31 165 5 131 -67 128 -240 -5 -301 -38 -17 -82 -19
-750 -19 -668 0 -712 2 -750 19 -71 32 -112 104 -100 175 19 123 141 179 260
121 114 -56 223 -12 259 106 38 124 122 213 236 250 14 5 63 7 110 5 68 -2 95
-8 135 -28z"/>
<path d="M1805 8174 c-16 -8 -38 -23 -49 -32 -46 -41 -46 -38 -46 -810 l0
-729 23 -34 c12 -18 38 -44 56 -56 l34 -23 567 0 567 0 33 23 c18 12 43 35 54
50 21 28 21 35 24 763 3 819 6 777 -66 832 l-35 27 -566 3 c-499 2 -570 0
-596 -14z m925 -494 l0 -170 -340 0 -340 0 0 170 0 170 340 0 340 0 0 -170z
m0 -680 l0 -170 -340 0 -340 0 0 170 0 170 340 0 340 0 0 -170z"/>
<path d="M4532 8173 c-18 -9 -45 -32 -60 -51 l-27 -35 0 -748 c0 -743 0 -748
21 -776 11 -15 36 -38 54 -50 l33 -23 567 0 567 0 33 23 c18 12 43 35 54 50
21 28 21 35 24 763 3 819 6 777 -66 832 l-35 27 -566 2 c-509 3 -569 1 -599
-14z m928 -493 l0 -170 -340 0 -340 0 0 170 0 170 340 0 340 0 0 -170z m0
-680 l0 -170 -340 0 -340 0 0 170 0 170 340 0 340 0 0 -170z"/>
<path d="M7262 8173 c-18 -9 -45 -32 -60 -51 l-27 -35 0 -748 c0 -743 0 -748
21 -776 11 -15 36 -38 54 -50 l33 -23 567 0 567 0 34 23 c18 12 44 38 56 56
l23 34 0 729 c0 807 3 772 -66 824 l-37 29 -566 2 c-509 3 -569 1 -599 -14z
m928 -493 l0 -170 -340 0 -340 0 0 170 0 170 340 0 340 0 0 -170z m0 -680 l0
-170 -340 0 -340 0 0 170 0 170 340 0 340 0 0 -170z"/>
<path d="M1805 5786 c-37 -17 -70 -52 -84 -89 -8 -19 -11 -265 -11 -756 l0
-728 23 -34 c12 -18 38 -44 56 -56 l34 -23 567 0 567 0 33 23 c18 12 43 35 54
50 21 28 21 35 24 763 3 819 6 777 -66 832 l-35 27 -566 2 c-457 2 -572 0
-596 -11z m925 -496 l0 -170 -340 0 -340 0 0 170 0 170 340 0 340 0 0 -170z
m0 -680 l0 -170 -340 0 -340 0 0 170 0 170 340 0 340 0 0 -170z"/>
<path d="M4535 5786 c-41 -18 -83 -69 -90 -109 -3 -18 -5 -357 -3 -754 3 -714
3 -722 24 -750 11 -15 36 -38 54 -50 l33 -23 567 0 567 0 33 23 c18 12 43 35
54 50 21 28 21 35 24 763 3 819 6 777 -66 832 l-35 27 -566 2 c-455 2 -572 0
-596 -11z m925 -496 l0 -170 -340 0 -340 0 0 170 0 170 340 0 340 0 0 -170z
m0 -680 l0 -170 -340 0 -340 0 0 170 0 170 340 0 340 0 0 -170z"/>
<path d="M7262 5783 c-18 -9 -45 -32 -60 -51 l-27 -35 0 -748 c0 -743 0 -748
21 -776 11 -15 36 -38 54 -50 l33 -23 567 0 567 0 34 23 c18 12 44 38 56 56
l23 35 -2 742 c-3 732 -3 743 -24 770 -11 15 -33 37 -48 48 -27 21 -39 21
-594 23 -510 3 -570 1 -600 -14z m928 -493 l0 -170 -340 0 -340 0 0 170 0 170
340 0 340 0 0 -170z m0 -680 l0 -170 -340 0 -340 0 0 170 0 170 340 0 340 0 0
-170z"/>
<path d="M1789 3387 c-18 -12 -44 -38 -56 -56 l-23 -34 0 -737 0 -737 23 -34
c12 -18 38 -44 56 -56 l34 -23 559 0 c620 0 603 -2 654 66 l29 37 0 747 0 747
-29 37 c-51 68 -34 66 -654 66 l-559 0 -34 -23z m941 -487 l0 -170 -340 0
-340 0 0 170 0 170 340 0 340 0 0 -170z m0 -680 l0 -170 -340 0 -340 0 0 170
0 170 340 0 340 0 0 -170z"/>
<path d="M4540 3399 c-29 -12 -67 -45 -83 -74 -9 -15 -13 -322 -17 -1160 l-5
-1140 -287 -5 c-270 -5 -288 -6 -314 -26 -40 -29 -64 -65 -74 -110 -5 -21 -10
-153 -10 -291 l0 -253 -443 0 -444 0 -43 -23 c-75 -40 -109 -133 -76 -210 16
-39 61 -82 99 -96 19 -7 212 -11 573 -11 515 0 547 1 582 19 94 48 101 76 102
399 l0 262 1113 0 c743 0 1124 4 1150 11 53 14 104 68 114 121 16 75 -8 136
-71 182 -26 20 -44 21 -314 26 l-287 5 -5 1142 c-5 1133 -5 1142 -26 1169 -11
15 -33 37 -48 48 -27 21 -39 21 -594 23 -363 1 -576 -2 -592 -8z m920 -754 l0
-425 -92 0 c-120 0 -158 -11 -201 -60 -75 -82 -54 -210 42 -260 33 -16 59 -20
146 -20 l105 0 0 -430 0 -430 -340 0 -340 0 0 1025 0 1025 340 0 340 0 0 -425z"/>
<path d="M7264 3396 c-17 -8 -44 -31 -60 -52 l-29 -37 0 -747 0 -747 29 -37
c52 -69 33 -67 661 -64 551 3 564 3 591 24 15 11 37 33 48 48 21 27 21 36 21
776 0 744 0 749 -21 777 -11 15 -36 38 -54 51 l-33 22 -561 0 c-450 -1 -567
-3 -592 -14z m926 -496 l0 -170 -340 0 -340 0 0 170 0 170 340 0 340 0 0 -170z
m0 -680 l0 -170 -340 0 -340 0 0 170 0 170 340 0 340 0 0 -170z"/>
<path d="M4528 320 c-54 -29 -81 -73 -85 -139 -5 -74 24 -127 87 -158 l44 -23
1398 0 c1522 0 1434 -3 1490 56 77 82 56 209 -42 261 l-43 23 -1406 0 c-1371
-1 -1407 -1 -1443 -20z"/>
</g>
</svg>
