<?xml version="1.0" standalone="no"?>
<!DOCTYPE svg PUBLIC "-//W3C//DTD SVG 20010904//EN"
 "http://www.w3.org/TR/2001/REC-SVG-20010904/DTD/svg10.dtd">
<svg version="1.0" xmlns="http://www.w3.org/2000/svg"
 width="1024.000000pt" height="1024.000000pt" viewBox="0 0 1024.000000 1024.000000"
 preserveAspectRatio="xMidYMid meet">

<g transform="translate(0.000000,1024.000000) scale(0.100000,-0.100000)"
fill="#D31F3C" stroke="none">
<path d="M5395 10226 c-16 -8 -714 -698 -1550 -1535 l-1520 -1521 -137 0 -138
0 0 1195 0 1195 1130 0 c1246 0 1158 -5 1217 63 72 82 41 211 -61 258 -39 18
-95 19 -1267 19 l-1226 0 -44 -23 c-27 -15 -52 -38 -66 -63 l-23 -39 0 -1416
0 -1416 23 -33 c12 -18 35 -43 50 -54 27 -20 42 -21 325 -24 163 -2 313 0 332
3 30 5 238 209 1528 1498 l1492 1492 1483 -1482 c815 -814 1496 -1488 1514
-1497 46 -23 619 -24 662 -1 39 20 78 69 91 113 6 25 10 496 10 1412 -1 1460
0 1419 -47 1472 -10 11 -36 29 -58 39 -37 17 -75 19 -482 19 l-443 0 0 108 c0
129 -18 171 -89 209 -44 23 -46 23 -421 23 -375 0 -377 0 -421 -23 -71 -38
-89 -80 -89 -209 l0 -108 -272 0 c-306 0 -332 -5 -379 -71 -35 -50 -39 -142
-7 -188 12 -19 36 -44 51 -55 28 -20 40 -21 425 -24 396 -2 397 -2 436 20 65
38 86 90 86 215 l0 103 170 0 170 0 0 -103 c0 -125 21 -178 86 -214 39 -23 42
-23 487 -23 l447 0 0 -1195 0 -1195 -132 0 -133 0 -1520 1520 c-1081 1081
-1531 1524 -1557 1535 -46 18 -93 19 -133 1z"/>
<path d="M5299 8855 c-224 -55 -405 -223 -486 -450 l-28 -80 -3 -515 -2 -515
23 -40 c12 -22 40 -50 62 -62 l40 -23 567 3 c557 2 567 2 595 23 15 11 38 36
51 54 l22 33 0 502 c0 467 -1 507 -20 579 -31 122 -82 208 -180 306 -96 96
-179 146 -300 179 -88 25 -252 27 -341 6z m285 -346 c110 -41 199 -153 213
-267 l6 -52 -342 0 -341 0 0 23 c0 40 28 120 59 170 80 124 260 181 405 126z
m216 -829 l0 -170 -340 0 -340 0 0 170 0 170 340 0 340 0 0 -170z"/>
<path d="M2181 6480 c-39 -9 -77 -35 -105 -74 -21 -27 -21 -30 -21 -1286 0
-1256 0 -1259 21 -1286 45 -61 113 -89 181 -74 51 12 84 39 111 90 l22 44 0
1123 0 1123 3070 0 3070 0 0 -2506 0 -2505 -35 -46 c-19 -25 -35 -50 -35 -54
0 -5 -39 -9 -87 -9 -152 0 -269 -46 -368 -145 -208 -207 -204 -533 8 -732 63
-59 106 -86 183 -116 59 -22 62 -22 814 -25 537 -2 772 0 815 8 193 37 364
206 404 398 55 262 -111 528 -370 597 -30 8 -90 15 -135 15 l-81 0 -54 72
c-152 204 -384 296 -656 264 l-63 -8 0 2510 0 2509 -22 33 c-30 44 -66 69
-114 80 -48 12 -6505 11 -6553 0z m7014 -5492 c28 -15 69 -46 92 -70 41 -42
93 -137 93 -170 0 -22 55 -85 91 -104 42 -21 107 -17 164 11 61 30 113 31 165
5 131 -67 128 -240 -5 -301 -38 -17 -82 -19 -750 -19 -668 0 -712 2 -750 19
-71 32 -112 104 -100 175 19 123 141 179 260 121 114 -56 223 -12 259 106 38
124 122 213 236 250 14 5 63 7 110 5 68 -2 95 -8 135 -28z"/>
<path d="M3155 5776 c-22 -13 -49 -39 -60 -58 -20 -32 -20 -51 -20 -769 l0
-735 27 -41 c50 -76 27 -73 653 -73 557 0 557 0 597 22 21 12 49 38 61 58 l22
35 3 700 c2 385 0 719 -3 743 -7 47 -49 103 -96 128 -23 12 -118 14 -586 14
l-558 0 -40 -24z m945 -486 l0 -170 -345 0 -345 0 0 170 0 170 345 0 345 0 0
-170z m0 -680 l0 -170 -345 0 -345 0 0 170 0 170 345 0 345 0 0 -170z"/>
<path d="M4890 5793 c-35 -14 -72 -47 -90 -84 -20 -38 -20 -56 -18 -772 l3
-734 29 -37 c51 -68 34 -66 654 -66 l559 0 34 23 c18 12 44 38 56 56 l23 34 0
737 0 737 -22 33 c-13 18 -36 43 -51 54 -28 21 -37 21 -595 23 -312 1 -574 -1
-582 -4z m910 -503 l0 -170 -340 0 -340 0 0 170 0 170 340 0 340 0 0 -170z m0
-680 l0 -170 -340 0 -340 0 0 170 0 170 340 0 340 0 0 -170z"/>
<path d="M6590 5789 c-14 -6 -36 -20 -48 -32 -54 -50 -52 -20 -52 -810 l0
-734 23 -34 c12 -18 38 -44 57 -56 l34 -23 570 2 571 3 33 23 c18 13 41 41 52
62 19 38 20 61 20 757 0 679 -1 720 -19 759 -10 23 -34 52 -52 65 l-34 24
-565 2 c-362 1 -574 -2 -590 -8z m920 -499 l0 -170 -340 0 -340 0 0 170 0 170
340 0 340 0 0 -170z m0 -680 l0 -170 -340 0 -340 0 0 170 0 170 340 0 340 0 0
-170z"/>
<path d="M785 4090 c-243 -39 -433 -267 -570 -685 -121 -369 -206 -960 -209
-1450 -1 -246 7 -291 84 -450 103 -214 304 -385 521 -444 l64 -18 5 -459 c6
-506 4 -492 70 -547 76 -64 203 -37 251 53 18 32 19 66 19 491 l0 456 96 31
c291 96 496 321 570 623 42 174 1 809 -81 1254 -88 478 -227 818 -407 997
-117 117 -269 171 -413 148z m134 -354 c153 -80 307 -511 390 -1091 51 -355
68 -798 36 -905 -54 -174 -183 -304 -354 -354 -62 -18 -193 -21 -261 -5 -136
31 -272 142 -333 270 -51 107 -60 173 -53 379 31 826 223 1569 441 1701 36 23
95 24 134 5z"/>
<path d="M2144 3396 c-17 -8 -44 -31 -60 -52 l-29 -37 -3 -1589 c-2 -1565 -2
-1589 18 -1627 32 -64 110 -101 185 -87 43 8 103 59 121 103 12 27 14 290 14
1498 l0 1465 2823 0 c1877 0 2834 4 2859 10 41 12 104 75 114 115 19 77 -25
173 -92 201 -49 21 -5903 20 -5950 0z"/>
<path d="M3175 2716 c-41 -19 -83 -66 -95 -107 -6 -21 -10 -392 -10 -981 l0
-948 -105 0 c-86 0 -113 -4 -144 -20 -64 -32 -101 -110 -87 -185 9 -48 68
-112 114 -125 24 -6 320 -10 815 -10 l777 0 0 -107 c0 -132 19 -175 90 -210
l44 -23 1397 0 c963 0 1406 3 1426 11 38 14 83 57 99 96 33 77 -1 170 -76 210
l-43 23 -1299 0 -1298 0 0 102 c0 126 -19 175 -84 213 -38 22 -54 25 -149 25
l-107 0 0 953 c0 904 -1 954 -19 992 -21 46 -54 79 -94 94 -45 17 -1113 14
-1152 -3z m925 -666 l0 -340 -92 0 c-116 0 -159 -12 -203 -55 -55 -56 -63
-152 -18 -214 43 -57 66 -66 191 -71 l117 -5 0 -340 0 -340 -340 0 -340 0 -3
853 -2 852 345 0 345 0 0 -340z"/>
<path d="M4870 2708 c-30 -15 -53 -37 -67 -63 l-23 -40 0 -723 c0 -588 3 -729
14 -755 17 -43 67 -84 116 -97 26 -7 489 -9 1427 -8 1553 3 1420 -3 1480 75
l28 36 3 732 2 731 -23 44 c-16 30 -37 51 -67 67 l-43 23 -1401 0 -1402 0 -44
-22z m1270 -828 l0 -510 -510 0 -510 0 0 510 0 510 510 0 510 0 0 -510z m1370
0 l0 -510 -510 0 -510 0 0 510 0 510 510 0 510 0 0 -510z"/>
</g>
</svg>
