<?xml version="1.0" encoding="UTF-8"?>
<!-- Generator: visioncortex VTracer 0.6.3 -->
<svg version="1.1" xmlns="http://www.w3.org/2000/svg" width="7000" height="2213">
<path d="M0 0 C1.32 0 2.64 0 4 0 C5.72 1.88 5.72 1.88 7.5 4.56 C10.9 9.48 14.45 14.21 18.19 18.88 C18.69 19.5 19.19 20.13 19.7 20.78 C21.9 23.54 24.09 26.09 26.61 28.57 C29.19 31.19 31.01 33.92 33 37 C34.59 39.1 36.19 41.18 37.81 43.25 C58 69.31 58 69.31 58 75 C58.99 75.33 59.98 75.66 61 76 C61.73 77.64 62.39 79.31 63 81 C63.94 82.6 64.92 84.18 65.94 85.74 C66.81 87.08 66.81 87.08 67.7 88.45 C68.31 89.39 68.93 90.34 69.56 91.31 C84.58 114.65 84.58 114.65 88.93 126.48 C90.27 129.63 91.95 132.49 93.69 135.44 C100.52 147.06 106.18 159.32 110.83 171.98 C112.05 175.14 113.47 178.14 114.94 181.19 C119.99 191.95 123.47 203.33 126.18 214.89 C126.96 217.86 127.92 220.72 128.94 223.62 C137.82 248.9 144.07 276.23 147.81 302.73 C148.41 306.85 149.17 310.85 150.24 314.88 C153.67 327.86 154.62 339.84 154.11 353.23 C154 356.33 153.93 359.42 153.86 362.52 C153.43 379.5 150.88 395.08 146.19 411.44 C145.87 412.61 145.55 413.79 145.22 415 C143.37 421.51 141.15 426.99 137.48 432.68 C136.04 434.94 134.81 437.21 133.61 439.61 C127.83 451.14 121.33 461.57 112.94 471.41 C110.44 474.75 108.65 478.27 106.81 482 C106.46 482.7 106.1 483.4 105.74 484.12 C103.06 489.32 103.06 489.32 102 495 C103.45 496.64 103.45 496.64 105 498 C113.48 495.89 120.32 492.24 127.76 487.76 C132.79 484.85 136.16 483.22 142 484 C143 485 143 485 143.12 487.01 C143.07 494.66 142.77 502.28 142.38 509.91 C142.31 511.2 142.25 512.49 142.18 513.82 C142.05 516.52 141.91 519.22 141.77 521.93 C141.6 525.39 141.42 528.86 141.26 532.33 C141.09 535.65 140.92 538.97 140.75 542.29 C140.69 543.53 140.63 544.78 140.57 546.06 C140.51 547.21 140.45 548.35 140.39 549.53 C140.31 551.05 140.31 551.05 140.23 552.59 C140 555 140 555 139 557 C138.84 559.75 138.72 562.5 138.62 565.25 C138.3 572.79 137.59 580.21 136.56 587.69 C136.44 588.59 136.32 589.5 136.19 590.44 C135.54 595 134.69 599.4 133.51 603.85 C132.43 608.41 131.79 613.06 131.06 617.69 C127.59 638.98 127.59 638.98 124.55 646.75 C122.83 651.24 121.77 655.82 120.69 660.5 C117.69 672.94 113.15 684.5 108.14 696.27 C107.06 698.87 106.06 701.49 105.06 704.12 C102.94 709.45 100.03 714.15 97 719 C95.46 721.62 93.92 724.24 92.39 726.87 C91 729 91 729 89.59 730.33 C87.1 732.95 85.52 736.13 83.75 739.25 C80.41 744.96 77.1 749.71 72 754 C71.4 754.53 70.8 755.06 70.18 755.61 C68.87 756.77 67.55 757.91 66.23 759.05 C63.62 761.33 61.1 763.7 58.56 766.06 C54.66 769.63 50.74 772.64 46.29 775.47 C42.71 777.86 39.46 780.62 36.16 783.38 C33.82 785.34 31.43 787.24 29.02 789.12 C16.2 798.3 16.2 798.3 8.43 811.32 C8.21 813.74 8.21 813.74 9 817 C11.76 819.26 11.76 819.26 14.63 818.92 C19.14 817.69 22.85 815.58 26.88 813.25 C27.64 812.82 28.4 812.39 29.19 811.95 C32.9 809.84 36.54 807.67 40.13 805.36 C43.01 803.54 45.87 802.17 49.03 800.9 C53.59 798.82 57.83 796.08 62.12 793.5 C63.1 792.92 64.08 792.34 65.08 791.74 C70.39 788.58 70.39 788.58 75.64 785.32 C78.33 783.82 79.97 783.74 83 784 C84.01 787.95 83.92 791.06 83.33 795.08 C83.16 796.24 82.99 797.4 82.81 798.6 C82.63 799.8 82.44 801.01 82.25 802.25 C82.08 803.44 81.91 804.63 81.73 805.86 C80.88 811.56 79.9 816.99 77.93 822.42 C76.67 825.91 75.56 829.46 74.44 833 C73.97 834.48 73.5 835.96 73.02 837.44 C72.29 839.72 71.56 842 70.84 844.29 C68.27 852.38 65.66 860.32 62 868 C61.51 869.18 61.02 870.36 60.52 871.58 C58.81 875.43 56.84 879.04 54.75 882.69 C54.36 883.38 53.96 884.07 53.56 884.78 C52.76 886.18 51.96 887.59 51.15 888.99 C50.08 890.86 49.02 892.73 47.96 894.6 C47.36 895.66 46.75 896.72 46.12 897.81 C45.59 898.75 45.06 899.68 44.51 900.64 C43.15 902.77 41.78 904.24 40 906 C39.13 907.44 38.3 908.9 37.5 910.38 C33.81 916.66 29.14 921.93 24.37 927.41 C22.32 929.79 20.35 932.24 18.38 934.69 C11.96 942.54 5.37 949.82 -2.26 956.51 C-5.49 959.45 -8.56 962.52 -11.62 965.62 C-15.7 969.74 -19.82 973.7 -24.23 977.45 C-26.12 979.1 -27.87 980.84 -29.62 982.62 C-33.25 986.3 -36.89 989.79 -41.4 992.37 C-44.16 994.1 -46.21 995.97 -48.5 998.27 C-49.33 999.1 -50.15 999.92 -51 1000.77 C-52.27 1002.06 -52.27 1002.06 -53.56 1003.38 C-54.41 1004.23 -55.26 1005.08 -56.14 1005.95 C-63.4 1012.39 -63.4 1012.39 -67.38 1020.69 C-67.2 1023.19 -67.2 1023.19 -65 1025 C-59.82 1025.65 -56.99 1024.19 -52.62 1021.5 C-46.64 1017.89 -40.53 1014.68 -34.24 1011.62 C-31.36 1010.2 -28.67 1008.78 -26 1007 C-23.38 1006.81 -23.38 1006.81 -21 1007 C-20.67 1007.33 -20.34 1007.66 -20 1008 C-20.39 1013.63 -22.07 1017.92 -24.56 1022.94 C-24.92 1023.68 -25.28 1024.43 -25.65 1025.2 C-28.26 1030.58 -30.94 1035.92 -33.64 1041.26 C-35.89 1045.72 -38.07 1050.21 -40.22 1054.73 C-40.5 1055.32 -40.79 1055.92 -41.08 1056.53 C-42.51 1059.52 -43.93 1062.51 -45.34 1065.51 C-47.94 1070.95 -50.6 1076.17 -53.89 1081.22 C-55.35 1083.57 -56.51 1086.02 -57.67 1088.53 C-64.23 1102.6 -73.79 1114.67 -83.43 1126.75 C-85.81 1129.74 -88.1 1132.8 -90.38 1135.88 C-98.12 1146.27 -106.34 1156.35 -115 1166 C-115.61 1166.72 -116.22 1167.43 -116.86 1168.17 C-122.14 1174.24 -127.86 1179.71 -133.77 1185.17 C-138.45 1189.51 -143.01 1193.96 -147.5 1198.5 C-151.53 1202.57 -155.56 1206.52 -159.94 1210.22 C-161.64 1211.69 -163.29 1213.19 -164.94 1214.72 C-165.46 1215.21 -165.99 1215.7 -166.53 1216.2 C-167.56 1217.16 -168.59 1218.13 -169.61 1219.09 C-171.94 1221.26 -174.22 1223.14 -176.91 1224.85 C-180.22 1227.15 -182.67 1229.69 -185.4 1232.64 C-193.44 1241.26 -201.15 1246.56 -212 1251 C-227.35 1257.46 -236.11 1263.27 -242.56 1278.81 C-243.71 1281.69 -244.85 1284.58 -245.93 1287.48 C-247.07 1290.16 -248.46 1292.53 -250 1295 C-253.63 1301.71 -256.69 1308.7 -259.71 1315.7 C-261.59 1320.02 -263.62 1324.24 -265.78 1328.43 C-270.58 1337.82 -274.49 1347.41 -278.25 1357.25 C-278.94 1359.03 -279.62 1360.81 -280.31 1362.59 C-282.16 1367.39 -284.01 1372.19 -285.85 1377 C-287.8 1382.08 -289.75 1387.16 -291.71 1392.23 C-294.62 1399.79 -297.53 1407.35 -300.43 1414.92 C-306.27 1430.12 -312.13 1445.31 -318 1460.5 C-326.6 1482.78 -335.19 1505.07 -343.76 1527.37 C-344.51 1529.33 -345.27 1531.29 -346.02 1533.25 C-347.54 1537.18 -349.05 1541.12 -350.52 1545.07 C-356.28 1560.4 -365 1572.03 -376 1584 C-377.01 1585.11 -378.02 1586.22 -379.03 1587.33 C-380.8 1589.27 -382.58 1591.2 -384.37 1593.12 C-386.36 1595.3 -388.3 1597.51 -390.23 1599.75 C-394.43 1604.56 -398.91 1609.06 -403.44 1613.56 C-404.65 1614.78 -404.65 1614.78 -405.88 1616.02 C-410.76 1620.89 -415.77 1625.51 -421 1630 C-422.12 1631 -423.24 1632 -424.36 1633 C-466.74 1670.66 -512.28 1695.77 -570 1693 C-576.23 1692.35 -582.05 1690.92 -588 1689 C-589.74 1688.44 -589.74 1688.44 -591.51 1687.87 C-613.16 1680.14 -631.03 1666.06 -645 1648 C-645.71 1647.13 -646.41 1646.26 -647.14 1645.37 C-656.38 1633.69 -663.47 1620.34 -670 1607 C-673.95 1610.84 -677.55 1614.88 -681.12 1619.06 C-696.29 1636.64 -711.93 1654.56 -731 1668 C-731.85 1668.6 -731.85 1668.6 -732.72 1669.21 C-754.26 1684.2 -779.84 1692.96 -806.17 1693.24 C-806.93 1693.25 -807.68 1693.26 -808.46 1693.27 C-824.36 1693.43 -839.62 1693.52 -855 1689 C-856.27 1688.66 -857.54 1688.32 -858.86 1687.97 C-890.98 1678.46 -914.92 1655.28 -933 1628 C-933.66 1627.01 -934.32 1626.02 -935 1625 C-937.68 1626.29 -940.14 1627.69 -942.59 1629.36 C-943.28 1629.83 -943.97 1630.3 -944.68 1630.78 C-945.8 1631.54 -945.8 1631.54 -946.94 1632.31 C-997.9 1666.51 -1054.82 1692.93 -1117.35 1693.2 C-1118.41 1693.21 -1119.47 1693.21 -1120.56 1693.22 C-1122.79 1693.23 -1125.02 1693.24 -1127.25 1693.24 C-1130.57 1693.25 -1133.89 1693.28 -1137.21 1693.31 C-1194.03 1693.59 -1251.74 1677.56 -1293 1637 C-1294.07 1635.96 -1295.15 1634.93 -1296.22 1633.89 C-1301.98 1628.29 -1307.31 1622.54 -1312 1616 C-1316.17 1619.52 -1320.23 1623.12 -1324.25 1626.81 C-1365.99 1664.82 -1415.92 1692.71 -1473.69 1693.24 C-1474.58 1693.25 -1475.47 1693.26 -1476.39 1693.27 C-1529.98 1693.74 -1576.22 1681.63 -1615.42 1643.56 C-1625.29 1633.81 -1633.83 1623.2 -1642 1612 C-1642.46 1611.37 -1642.92 1610.74 -1643.4 1610.08 C-1649.46 1601.72 -1654.95 1593.01 -1660.31 1584.19 C-1660.87 1583.28 -1661.42 1582.38 -1662 1581.45 C-1677.1 1556.26 -1689.43 1529.23 -1702.48 1502.94 C-1711.34 1485.11 -1720.24 1467.35 -1730 1450 C-1730.48 1449.14 -1730.97 1448.28 -1731.46 1447.39 C-1746.92 1419.88 -1765.84 1389.03 -1797.92 1379.43 C-1804.89 1377.48 -1811.83 1375.99 -1819 1375 C-1819.11 1375.94 -1819.22 1376.88 -1819.33 1377.85 C-1820.47 1387.58 -1821.98 1397.2 -1823.69 1406.84 C-1824.15 1409.45 -1824.61 1412.07 -1825.07 1414.69 C-1825.74 1418.49 -1826.4 1422.3 -1827.08 1426.11 C-1828.88 1436.36 -1830.68 1446.61 -1832.47 1456.86 C-1832.65 1457.92 -1832.84 1458.99 -1833.03 1460.08 C-1835.9 1476.49 -1838.68 1492.92 -1841.41 1509.36 C-1841.77 1511.52 -1842.13 1513.68 -1842.49 1515.84 C-1844.56 1528.33 -1844.56 1528.33 -1846.62 1540.84 C-1860.21 1623.87 -1860.21 1623.87 -1887 1656 C-1888.02 1657.22 -1888.02 1657.22 -1889.06 1658.47 C-1908.1 1680.47 -1934.56 1690.18 -1963 1693 C-1965.96 1693.16 -1968.91 1693.21 -1971.87 1693.24 C-1972.7 1693.25 -1973.53 1693.26 -1974.39 1693.27 C-1992.94 1693.44 -2010.85 1693.29 -2029 1689 C-2029.9 1688.79 -2030.8 1688.58 -2031.73 1688.37 C-2075.16 1677.92 -2113.7 1651.08 -2141 1616 C-2141.79 1615.03 -2142.58 1614.06 -2143.39 1613.06 C-2149.91 1604.87 -2155.41 1596.23 -2160.7 1587.21 C-2161.89 1585.19 -2163.1 1583.18 -2164.31 1581.17 C-2175.46 1562.37 -2183.38 1541.77 -2190 1521 C-2190.3 1520.05 -2190.61 1519.11 -2190.92 1518.13 C-2197.6 1497.07 -2202.05 1475.54 -2205.25 1453.69 C-2205.4 1452.67 -2205.55 1451.64 -2205.71 1450.59 C-2206.19 1447.07 -2206.61 1443.54 -2207 1440 C-2207.09 1439.22 -2207.17 1438.45 -2207.26 1437.64 C-2209.26 1419.16 -2209.36 1400.72 -2209.32 1382.15 C-2209.31 1379.66 -2209.31 1377.16 -2209.31 1374.66 C-2209.27 1349.01 -2208.71 1323.53 -2206 1298 C-2205.87 1296.77 -2205.87 1296.77 -2205.74 1295.51 C-2199.57 1236 -2187.13 1176.36 -2164 1121 C-2163.58 1120 -2163.17 1119 -2162.74 1117.97 C-2143.9 1073 -2119.71 1029.58 -2087.49 992.76 C-2086.37 991.44 -2085.28 990.09 -2084.21 988.73 C-2077.9 980.74 -2070.89 973.59 -2063.68 966.42 C-2061.63 964.38 -2059.59 962.33 -2057.55 960.27 C-2050.33 953.05 -2043.04 946.29 -2035 940 C-2033.71 938.93 -2032.41 937.85 -2031.13 936.77 C-1969.24 885.23 -1891.24 855.82 -1811.98 845.26 C-1810.1 845.01 -1808.22 844.75 -1806.35 844.5 C-1785.85 841.8 -1765.27 841.69 -1744.64 841.63 C-1742.48 841.63 -1740.33 841.61 -1738.18 841.6 C-1722.51 841.52 -1706.99 841.94 -1691.38 843.38 C-1690.71 843.44 -1690.05 843.5 -1689.36 843.56 C-1648.67 847.38 -1607.74 856.75 -1571 875 C-1570.28 875.35 -1569.55 875.71 -1568.81 876.07 C-1519.96 900.13 -1482.98 940.24 -1464.95 991.8 C-1461.62 1001.73 -1459 1011.72 -1457 1022 C-1456.84 1022.78 -1456.68 1023.55 -1456.51 1024.35 C-1451.13 1050.84 -1451.37 1082.58 -1457 1109 C-1457.2 1109.97 -1457.4 1110.94 -1457.6 1111.94 C-1470.02 1171.28 -1502.84 1226.61 -1551 1264 C-1552.13 1264.92 -1553.25 1265.85 -1554.37 1266.78 C-1588.73 1295.12 -1629.33 1313.5 -1671.44 1327.12 C-1672.35 1327.42 -1673.26 1327.72 -1674.2 1328.02 C-1675.04 1328.28 -1675.88 1328.55 -1676.75 1328.82 C-1677.47 1329.05 -1678.2 1329.28 -1678.95 1329.52 C-1681 1330 -1681 1330 -1685 1330 C-1685 1330.66 -1685 1331.32 -1685 1332 C-1683.85 1332.21 -1682.69 1332.41 -1681.5 1332.62 C-1652.26 1339.28 -1625.13 1357.4 -1607 1381 C-1605.92 1382.37 -1605.92 1382.37 -1604.83 1383.77 C-1585.13 1409.33 -1571.14 1438.33 -1557.23 1467.29 C-1548.63 1485.13 -1539.56 1502.86 -1528 1519 C-1527.56 1519.61 -1527.12 1520.22 -1526.67 1520.85 C-1520 1530.12 -1513.02 1538.86 -1505 1547 C-1504.21 1547.8 -1503.43 1548.6 -1502.62 1549.42 C-1492.15 1559.44 -1479.82 1565.91 -1466 1570 C-1465.24 1570.23 -1464.47 1570.47 -1463.69 1570.71 C-1439.39 1577.1 -1414.18 1570.23 -1393 1558 C-1377.16 1548.25 -1363.11 1535.11 -1350 1522 C-1350.09 1519.64 -1350.24 1517.3 -1350.42 1514.95 C-1352.45 1484.79 -1352.68 1453.76 -1347 1424 C-1346.79 1422.87 -1346.57 1421.75 -1346.35 1420.59 C-1337.15 1374.05 -1316.56 1328.47 -1284.21 1293.39 C-1282.72 1291.79 -1281.26 1290.16 -1279.82 1288.51 C-1250.1 1254.57 -1206.52 1230.92 -1162 1224 C-1160.87 1223.82 -1159.74 1223.65 -1158.58 1223.47 C-1148.6 1222.06 -1138.77 1221.66 -1128.69 1221.68 C-1126.13 1221.69 -1123.58 1221.66 -1121.02 1221.64 C-1086.14 1221.5 -1054.95 1233.11 -1029.44 1257.25 C-1008.53 1279.11 -996.98 1309.24 -996.8 1339.43 C-996.79 1340.6 -996.79 1340.6 -996.78 1341.79 C-996.76 1344.3 -996.75 1346.81 -996.75 1349.31 C-996.75 1350.6 -996.75 1350.6 -996.75 1351.9 C-996.76 1364.17 -997.06 1376.03 -1000 1388 C-1000.17 1388.74 -1000.34 1389.48 -1000.52 1390.24 C-1003.15 1401.39 -1007 1411.71 -1012 1422 C-1012.33 1422.69 -1012.66 1423.38 -1013 1424.09 C-1020.87 1440.36 -1031.48 1454.04 -1044 1467 C-1044.93 1467.99 -1045.86 1468.99 -1046.79 1469.98 C-1085.1 1510.29 -1144.29 1529.03 -1196.39 1543.43 C-1201.61 1544.88 -1206.82 1546.4 -1212 1548 C-1204.79 1560.9 -1195.04 1570.98 -1182 1578 C-1180.92 1578.59 -1179.83 1579.19 -1178.71 1579.8 C-1145.8 1596.94 -1104.44 1594.53 -1070.06 1583.7 C-1030.74 1570.96 -994.99 1550.25 -963.28 1523.85 C-961 1522 -961 1522 -958 1520 C-957.46 1517.44 -957.46 1517.44 -957.41 1514.41 C-957.32 1512.67 -957.32 1512.67 -957.23 1510.89 C-957.17 1509.62 -957.12 1508.36 -957.06 1507.06 C-952.12 1420.62 -914.03 1341.72 -850.22 1283.37 C-847.25 1280.78 -844.15 1278.38 -841 1276 C-840 1275.21 -839.01 1274.42 -837.98 1273.61 C-800.31 1243.8 -745.33 1215.07 -696 1217 C-696.01 1216.42 -696.03 1215.84 -696.05 1215.24 C-696.14 1208.38 -695.55 1201.75 -694.71 1194.95 C-694.58 1193.81 -694.44 1192.66 -694.3 1191.47 C-693.85 1187.73 -693.4 1183.99 -692.94 1180.25 C-692.78 1178.96 -692.62 1177.67 -692.46 1176.34 C-681.03 1082.89 -663.28 989.16 -626 889 C-625.76 888.38 -625.52 887.75 -625.27 887.11 C-611.81 852.46 -595.58 817.83 -570.1 790.29 C-568.24 788.27 -566.5 786.18 -564.75 784.06 C-551.67 769.23 -533.71 758.1 -515 752 C-513.77 751.59 -512.54 751.18 -511.27 750.75 C-489.17 744.12 -464.14 746.22 -443.73 756.73 C-417.2 771.14 -400.72 796.7 -392 825 C-386.01 846.04 -382.88 867.74 -382.8 889.6 C-382.79 891.38 -382.79 891.38 -382.78 893.18 C-382.55 942.35 -382.55 942.35 -385.72 965.94 C-386.02 968.15 -386.3 970.35 -386.59 972.56 C-397.93 1060.01 -426.19 1144.7 -505 1327 C-505.34 1327.72 -505.69 1328.44 -506.04 1329.17 C-513.28 1344.31 -520.52 1359.44 -528.46 1374.23 C-530.43 1377.91 -532.35 1381.62 -534.26 1385.34 C-540.43 1397.36 -546.74 1409.27 -553.46 1421 C-556.56 1426.43 -559.56 1431.89 -562.44 1437.44 C-566.77 1445.79 -571.53 1453.88 -576.3 1461.98 C-576.88 1462.96 -577.46 1463.94 -578.06 1464.96 C-578.84 1466.27 -578.84 1466.27 -579.63 1467.61 C-580.08 1468.4 -580.53 1469.19 -581 1470 C-581.58 1470.95 -581.58 1470.95 -582.17 1471.92 C-585.68 1480.73 -582.58 1493.44 -581.31 1502.56 C-581.13 1503.87 -580.95 1505.17 -580.77 1506.51 C-577.35 1530.67 -572.09 1558.02 -553 1575 C-542.55 1581.95 -533.4 1582.87 -521.29 1580.72 C-502.38 1576.59 -487.32 1566.05 -473.28 1553.1 C-471.31 1551.28 -469.3 1549.54 -467.25 1547.81 C-458.96 1540.59 -451.06 1532.64 -443.96 1524.24 C-441.1 1520.97 -438.1 1517.84 -435.12 1514.69 C-430.24 1509.49 -425.6 1504.19 -421.14 1498.61 C-418.85 1495.82 -416.45 1493.16 -414 1490.5 C-404.71 1480.36 -396.66 1469.54 -388.69 1458.36 C-385.99 1454.58 -383.28 1450.82 -380.56 1447.06 C-380.03 1446.33 -379.5 1445.59 -378.95 1444.83 C-374.94 1439.28 -370.88 1433.76 -366.81 1428.25 C-362 1421.73 -357.24 1415.18 -352.55 1408.57 C-350.16 1405.22 -347.75 1401.88 -345.34 1398.54 C-344.23 1397 -343.12 1395.46 -342.02 1393.92 C-339.37 1390.23 -336.7 1386.59 -333.88 1383.05 C-322.47 1368.45 -314.95 1351.64 -307 1335 C-306.34 1335 -305.68 1335 -305 1335 C-304.75 1334.18 -304.5 1333.36 -304.25 1332.51 C-302.8 1328.44 -300.98 1324.68 -299.04 1320.82 C-298.66 1320.05 -298.27 1319.28 -297.88 1318.48 C-297.06 1316.86 -296.25 1315.23 -295.43 1313.61 C-294.2 1311.14 -292.97 1308.68 -291.74 1306.21 C-290.95 1304.62 -290.15 1303.03 -289.36 1301.45 C-288.99 1300.72 -288.63 1299.99 -288.26 1299.24 C-286.1 1294.96 -283.75 1290.87 -281.14 1286.84 C-279.58 1284.32 -278.29 1281.68 -276.99 1279.01 C-275.99 1276.97 -274.93 1274.98 -273.84 1272.98 C-268.25 1262.62 -263.21 1252.08 -258.33 1241.36 C-255.05 1234.19 -251.58 1227.21 -247.79 1220.29 C-244.09 1213.5 -240.74 1206.52 -237.31 1199.59 C-232.81 1190.51 -228.17 1181.5 -223.5 1172.5 C-218.25 1162.37 -213.06 1152.22 -208 1142 C-206.67 1139.33 -205.33 1136.67 -204 1134 C-203.33 1132.66 -202.66 1131.32 -201.99 1129.98 C-200.69 1127.39 -199.4 1124.8 -198.11 1122.21 C-197.79 1121.58 -197.48 1120.95 -197.15 1120.31 C-196.5 1119.01 -195.86 1117.71 -195.21 1116.42 C-193.27 1112.54 -191.33 1108.65 -189.4 1104.77 C-184.61 1095.13 -179.77 1085.53 -174.7 1076.04 C-171.8 1070.59 -169.02 1065.08 -166.27 1059.55 C-164.05 1055.09 -161.81 1050.64 -159.56 1046.19 C-148.5 1024.35 -137.92 1002.38 -128 980 C-127.21 978.22 -126.41 976.44 -125.62 974.66 C-124.34 971.79 -123.06 968.92 -121.79 966.05 C-119.86 961.67 -117.9 957.3 -115.94 952.94 C-115.58 952.14 -115.22 951.34 -114.85 950.52 C-112.68 945.7 -110.49 940.89 -108.28 936.08 C-106.96 933.2 -105.63 930.31 -104.31 927.42 C-103.66 926 -103 924.58 -102.35 923.17 C-97.77 913.26 -93.73 903.26 -90 893 C-89.21 890.88 -88.42 888.76 -87.62 886.64 C-86.5 883.65 -85.38 880.66 -84.26 877.67 C-81.05 869.07 -81.05 869.07 -79.52 865.28 C-76.81 858.49 -74.63 851.63 -72.58 844.62 C-70.42 837.28 -68.09 829.99 -65.72 822.71 C-63.8 816.81 -61.9 810.9 -60 805 C-59.68 804.01 -59.36 803.01 -59.03 801.99 C-53.55 784.95 -49.22 767.63 -44.85 750.29 C-43.53 745.07 -42.18 739.86 -40.79 734.65 C-36.51 718.53 -32.9 702.38 -29.77 685.99 C-28.95 681.74 -28.1 677.49 -27.25 673.25 C-27.1 672.51 -26.95 671.77 -26.8 671.01 C-26.5 669.5 -26.19 668 -25.89 666.5 C-23.42 654.24 -21 641.98 -18.69 629.69 C-17.7 624.52 -16.65 619.38 -15.51 614.24 C-14.02 607.35 -12.9 600.44 -11.87 593.47 C-10.28 582.86 -8.56 572.29 -6.45 561.77 C-4.8 553.3 -3.58 544.78 -2.39 536.23 C-1.68 531.17 -0.86 526.28 0.47 521.34 C1.84 515.29 2.55 509.07 3.44 502.94 C4.62 494.72 5.84 486.56 7.53 478.43 C9.12 470.72 10.15 462.99 11.12 455.19 C11.46 452.53 11.79 449.88 12.13 447.23 C12.35 445.5 12.35 445.5 12.57 443.74 C13 441 13 441 14 439 C14.39 436.31 14.74 433.63 15.05 430.93 C15.25 429.25 15.46 427.56 15.66 425.88 C15.77 424.99 15.87 424.1 15.98 423.19 C17.54 410.19 19.16 397.23 21.34 384.32 C23.64 370.5 25.5 356.61 27.45 342.73 C27.74 340.69 28.03 338.64 28.32 336.6 C28.46 335.6 28.6 334.6 28.74 333.57 C29.6 327.55 30.57 321.56 31.62 315.58 C33.1 306.98 33.9 298.38 34.56 289.69 C34.79 286.82 35.02 283.94 35.25 281.07 C35.31 280.38 35.37 279.68 35.43 278.96 C35.79 274.8 36.33 270.7 37.02 266.58 C38.35 258.45 38.67 250.28 39.06 242.06 C39.18 239.71 39.3 237.37 39.42 235.02 C39.49 233.57 39.57 232.13 39.63 230.68 C39.78 227.84 39.98 225.08 40.5 222.28 C41.08 218.45 41.17 214.69 41.19 210.83 C41.2 210.03 41.21 209.23 41.22 208.4 C41.24 205.76 41.26 203.11 41.27 200.46 C41.28 199.55 41.28 198.63 41.29 197.68 C41.32 192.78 41.34 187.88 41.35 182.98 C41.36 179.01 41.39 175.03 41.43 171.06 C41.7 144.93 40.42 119.77 36 94 C35.7 92.24 35.7 92.24 35.39 90.44 C32.02 71.03 24.65 53.39 15.51 35.99 C13.63 32.41 12.18 28.88 11 25 C10.34 25 9.68 25 9 25 C9.14 25.98 9.28 26.96 9.43 27.96 C12.51 49.51 14.79 70.87 15.81 92.6 C15.98 95.65 16.22 98.67 16.5 101.71 C19.38 134.91 17.55 168.15 15.19 201.31 C15.02 203.73 14.85 206.16 14.69 208.58 C13.89 220.44 12.93 232.28 11.75 244.11 C10.93 252.4 10.3 260.7 9.7 269 C9.62 270.02 9.54 271.03 9.46 272.07 C9.4 272.98 9.33 273.88 9.27 274.81 C9 277 9 277 8 279 C7.81 280.5 7.67 282 7.55 283.5 C7.44 284.91 7.44 284.91 7.33 286.34 C7.25 287.36 7.18 288.37 7.1 289.42 C6.97 291 6.97 291 6.85 292.61 C6.49 297.11 6.15 301.62 5.8 306.12 C4.88 318.15 3.92 330.08 2 342 C1.69 344.04 1.4 346.08 1.1 348.12 C0.68 350.97 0.25 353.82 -0.18 356.66 C-0.39 358.1 -0.61 359.55 -0.82 360.99 C-2.84 374.59 -2.84 374.59 -4 379.48 C-5.81 387.13 -6.7 395.01 -7.82 402.79 C-8.14 404.97 -8.46 407.14 -8.78 409.32 C-8.97 410.6 -9.15 411.88 -9.35 413.21 C-9.92 416.55 -10.68 419.76 -11.53 423.04 C-12.26 426.08 -12.7 429.14 -13.15 432.23 C-13.35 433.59 -13.55 434.95 -13.75 436.32 C-13.85 437.02 -13.95 437.72 -14.06 438.45 C-15.69 449.69 -17.44 460.9 -19.55 472.07 C-21.06 480.17 -22.35 488.3 -23.61 496.44 C-24.28 500.77 -24.97 505.05 -25.96 509.32 C-27.44 515.69 -28.39 522.17 -29.44 528.62 C-30.9 537.55 -32.41 546.44 -34.26 555.29 C-35.23 560.13 -36.05 565 -36.88 569.88 C-38.49 579.31 -40.31 588.69 -42.21 598.07 C-43.54 604.63 -44.78 611.18 -45.91 617.77 C-46.84 623.17 -47.85 628.56 -48.88 633.94 C-49.04 634.81 -49.21 635.69 -49.38 636.59 C-50.31 641.44 -51.25 646.29 -52.19 651.13 C-52.61 653.28 -53.02 655.42 -53.44 657.56 C-53.65 658.66 -53.86 659.76 -54.08 660.89 C-55.15 666.38 -56.16 671.88 -57.08 677.4 C-60.17 695.95 -64.47 714.11 -68.92 732.37 C-70.62 739.37 -72.25 746.38 -73.85 753.41 C-74.33 755.5 -74.81 757.59 -75.28 759.68 C-75.98 762.69 -76.66 765.71 -77.34 768.73 C-80.26 781.7 -83.84 794.24 -88.23 806.79 C-89.23 809.67 -90.2 812.56 -91.15 815.46 C-93.75 823.24 -96.34 831.02 -98.93 838.8 C-99.25 839.76 -99.57 840.72 -99.9 841.7 C-100.55 843.66 -101.2 845.61 -101.85 847.56 C-103.53 852.59 -105.21 857.62 -106.87 862.65 C-115.86 889.88 -115.86 889.88 -120.07 900.64 C-121.27 903.68 -122.45 906.74 -123.63 909.79 C-124.36 911.67 -125.1 913.55 -125.83 915.43 C-126.54 917.25 -127.25 919.07 -127.95 920.89 C-129.99 926.07 -132.05 931.2 -134.41 936.24 C-137.97 943.94 -140.9 951.89 -143.94 959.81 C-147.69 969.59 -151.49 979.3 -155.67 988.91 C-157.51 993.19 -159.23 997.53 -160.94 1001.88 C-165.03 1012.19 -169.16 1022.5 -174.24 1032.38 C-178.39 1040.61 -181.83 1049.19 -185.41 1057.69 C-191.63 1072.41 -191.63 1072.41 -194.97 1078.91 C-199.14 1087.06 -202.51 1095.55 -206 1104 C-209.96 1113.58 -213.91 1123.08 -218.66 1132.31 C-220.9 1136.81 -222.75 1141.46 -224.62 1146.12 C-228.69 1156.06 -233.1 1165.8 -237.66 1175.52 C-241.21 1183.14 -244.46 1190.82 -247.41 1198.68 C-249.15 1203.23 -251.14 1207.02 -254 1211 C-256.97 1215.21 -259.01 1219.2 -260.88 1224 C-263.12 1229.49 -265.19 1233.42 -270 1237 C-272.44 1237.88 -272.44 1237.88 -275 1238 C-276.09 1238.07 -277.17 1238.13 -278.29 1238.2 C-284.31 1237.87 -288.32 1235.11 -292.53 1230.87 C-297.31 1224.79 -299.56 1216.77 -302.09 1209.56 C-302.85 1207.42 -303.65 1205.33 -304.52 1203.24 C-309.74 1190.63 -312.27 1177.87 -313.73 1164.35 C-314.27 1159.64 -314.89 1154.95 -315.5 1150.25 C-315.69 1148.75 -315.69 1148.75 -315.89 1147.22 C-316.53 1142.33 -317.23 1137.48 -318.12 1132.62 C-320.55 1118.58 -320.19 1104 -320.19 1089.79 C-320.19 1086.77 -320.21 1083.75 -320.22 1080.72 C-320.26 1068.53 -319.57 1056.6 -318.25 1044.49 C-317.84 1040.48 -317.55 1036.47 -317.25 1032.45 C-317.14 1030.91 -317.02 1029.37 -316.9 1027.83 C-316.73 1025.53 -316.56 1023.24 -316.4 1020.94 C-315.69 1011.08 -314.55 1001.47 -312.69 991.76 C-312.03 988.18 -311.54 984.62 -311.12 981 C-309.23 966.26 -306.03 951.62 -302.5 937.19 C-302.32 936.41 -302.15 935.64 -301.96 934.84 C-301.08 931.41 -300.13 929.15 -297.78 926.49 C-294.16 924.55 -292.08 924.5 -288 925 C-285.31 925.87 -282.8 927.02 -280.25 928.25 C-278.84 928.89 -277.43 929.54 -276.02 930.18 C-275.34 930.49 -274.66 930.8 -273.95 931.12 C-264.83 935.3 -264.83 935.3 -255 936 C-252.81 929.43 -257.64 921.52 -260.54 915.61 C-263.23 910.23 -266.03 904.92 -268.98 899.67 C-287.03 867.13 -288.87 830.77 -279 795 C-277.04 788.51 -274.64 782.24 -272 776 C-268.3 767.23 -264.81 758.4 -261.44 749.5 C-260.97 748.27 -260.5 747.04 -260.02 745.78 C-257.89 740.16 -255.82 734.55 -253.97 728.84 C-252.31 723.74 -250.31 718.84 -248.21 713.91 C-246.34 709.42 -244.74 704.84 -243.12 700.25 C-239.02 688.7 -234.75 677.22 -230.44 665.75 C-230.11 664.88 -229.79 664.02 -229.45 663.12 C-224.67 650.4 -219.87 637.69 -215 625 C-211 625 -211 625 -208.77 627.17 C-207.59 628.66 -207.59 628.66 -206.38 630.19 C-205.72 631 -205.72 631 -205.06 631.82 C-203.69 633.54 -202.34 635.27 -201 637 C-200.58 637.53 -200.17 638.07 -199.74 638.62 C-197.67 641.28 -195.62 643.95 -193.57 646.63 C-181.4 665.38 -181.4 665.38 -164.7 677.45 C-162.46 677.72 -160.25 677.9 -158 678 C-158 677.34 -158 676.68 -158 676 C-157.34 675.67 -156.68 675.34 -156 675 C-155.41 659.27 -165.87 642.97 -172.38 629.04 C-173.3 627.08 -174.21 625.12 -175.12 623.15 C-175.97 621.32 -176.82 619.49 -177.69 617.67 C-188.91 593.4 -191.75 557.79 -184 532 C-182.13 527.34 -179.83 523.03 -177.41 518.63 C-174.65 513.49 -172.09 508.23 -169.5 503 C-167.85 499.7 -166.2 496.39 -164.55 493.09 C-164.23 492.46 -163.92 491.83 -163.59 491.18 C-161.95 487.89 -160.3 484.6 -158.64 481.32 C-155.36 474.81 -152.17 468.26 -149.04 461.68 C-144.36 451.8 -139.48 442.07 -134.34 432.42 C-131.47 427.04 -128.75 421.58 -126.04 416.12 C-124.14 412.29 -122.23 408.46 -120.32 404.64 C-119.62 403.23 -118.91 401.83 -118.21 400.42 C-117.85 399.7 -117.49 398.97 -117.11 398.23 C-115.24 394.48 -113.37 390.74 -111.5 387 C-110.75 385.5 -110 384.01 -109.25 382.51 C-108.88 381.77 -108.51 381.03 -108.13 380.27 C-103.57 371.13 -103.57 371.13 -99 362 C-96.14 362.33 -95.18 362.78 -93.32 365.04 C-92.51 366.36 -92.51 366.36 -91.69 367.7 C-91.09 368.66 -90.49 369.62 -89.87 370.62 C-88.94 372.14 -88.94 372.14 -88 373.69 C-86.77 375.67 -85.54 377.65 -84.31 379.64 C-82.51 382.56 -80.71 385.48 -78.92 388.41 C-74.62 394.2 -67.65 399.65 -60.62 401.62 C-57.02 402 -54.45 402.12 -51 401 C-48.95 399.52 -48.95 399.52 -48 397 C-47.5 390.1 -49 384.24 -50.88 377.62 C-51.34 375.95 -51.34 375.95 -51.81 374.24 C-54.85 363.32 -58.07 352.45 -61.29 341.58 C-64.73 329.98 -68.08 318.35 -71.25 306.68 C-71.77 304.82 -72.32 302.96 -72.89 301.12 C-73.18 300.17 -73.46 299.22 -73.75 298.25 C-74.02 297.41 -74.28 296.57 -74.55 295.7 C-75.59 289.47 -73.48 284.12 -71.01 278.5 C-70.38 277.03 -69.76 275.57 -69.14 274.11 C-68.81 273.35 -68.48 272.59 -68.14 271.8 C-62.78 259.34 -57.7 246.83 -53.12 234.06 C-48.46 221.04 -43.29 208.31 -37.5 195.75 C-35.19 190.33 -33.66 184.63 -32 179 C-31.67 177.88 -31.34 176.77 -31 175.62 C-27.28 163 -23.63 150.41 -20.98 137.52 C-20.3 134.18 -19.45 130.9 -18.58 127.6 C-16.17 118.35 -14.66 109.1 -13.38 99.62 C-12.97 96.7 -12.56 93.78 -12.15 90.85 C-12.05 90.15 -11.95 89.46 -11.85 88.74 C-11.33 85.07 -10.72 81.45 -9.95 77.82 C-8.65 71.67 -8.11 65.44 -7.5 59.19 C-6.82 52.29 -6.11 45.43 -5 38.59 C-3.71 30.52 -3 22.4 -2.25 14.25 C-2.06 12.27 -1.87 10.29 -1.68 8.3 C-1.58 7.14 -1.47 5.97 -1.36 4.77 C-1 2 -1 2 0 0 Z M-503 850 C-546.64 887.08 -561.31 1060.37 -576.93 1211.02 C-578.74 1233.4 -580.41 1255.79 -581.88 1278.19 C-581.94 1279.12 -582 1280.06 -582.06 1281.02 C-582.76 1291.7 -583.16 1302.3 -583 1313 C-580.67 1310.09 -579.06 1307.24 -577.53 1303.85 C-576.81 1302.25 -576.81 1302.25 -576.08 1300.63 C-575.56 1299.45 -575.04 1298.27 -574.5 1297.06 C-574.23 1296.45 -573.95 1295.83 -573.67 1295.2 C-559.57 1263.5 -546.24 1231.46 -534 1199 C-533.64 1198.05 -533.64 1198.05 -533.27 1197.08 C-529.75 1187.76 -526.33 1178.4 -523 1169 C-522.6 1167.88 -522.6 1167.88 -522.2 1166.74 C-494.33 1088.07 -469.93 1003.25 -472 919 C-472.02 918.24 -472.04 917.49 -472.05 916.71 C-472.57 880.02 -472.57 880.02 -488.56 848.5 C-494.32 844.95 -497.65 846.39 -503 850 Z M-1998.85 1046.71 C-2003.19 1051.34 -2007.05 1056.29 -2010.81 1061.4 C-2011.99 1062.99 -2013.23 1064.53 -2014.46 1066.08 C-2021.76 1075.23 -2027.96 1084.99 -2034 1095 C-2034.5 1095.83 -2035 1096.65 -2035.51 1097.5 C-2079.7 1171.41 -2096.4 1258.43 -2100 1384 C-2099.98 1384.95 -2099.96 1385.9 -2099.95 1386.87 C-2098.69 1445.81 -2090.67 1517.36 -2048 1562 C-2047.12 1562.97 -2047.12 1562.97 -2046.23 1563.96 C-2039.4 1571.28 -2030.2 1576.92 -2020.11 1577.96 C-2012.97 1578.08 -2007.48 1575.21 -2002.29 1570.42 C-1987.94 1555.51 -1985.38 1531.04 -1981.93 1511.55 C-1981.56 1509.51 -1981.19 1507.47 -1980.82 1505.42 C-1979.84 1500.02 -1978.87 1494.61 -1977.91 1489.21 C-1976.91 1483.62 -1975.9 1478.04 -1974.9 1472.46 C-1973.31 1463.66 -1971.73 1454.86 -1970.16 1446.06 C-1968.44 1436.47 -1966.72 1426.88 -1964.98 1417.3 C-1964.15 1412.75 -1963.33 1408.19 -1962.51 1403.64 C-1962.09 1401.31 -1961.67 1398.98 -1961.25 1396.66 C-1960.68 1393.53 -1960.12 1390.39 -1959.55 1387.26 C-1959.39 1386.37 -1959.23 1385.49 -1959.07 1384.58 C-1958.37 1380.67 -1957.8 1376.99 -1958 1373 C-1958.9 1372.97 -1959.79 1372.95 -1960.72 1372.92 C-1976 1372.23 -1991.55 1369.99 -2002.69 1358.5 C-2014.61 1343.8 -2016.34 1327.21 -2015 1309 C-2014.21 1304.62 -2012.99 1300.97 -2011 1297 C-2010.59 1296.14 -2010.17 1295.27 -2009.75 1294.38 C-2003.92 1283.48 -1994.39 1276.44 -1983 1272 C-1977.41 1270.4 -1972.36 1269.68 -1966.56 1269.59 C-1965.41 1269.56 -1965.41 1269.56 -1964.24 1269.53 C-1961.83 1269.47 -1959.41 1269.42 -1957 1269.38 C-1955.35 1269.34 -1953.7 1269.3 -1952.05 1269.26 C-1948.03 1269.16 -1944.02 1269.08 -1940 1269 C-1939.76 1267.58 -1939.76 1267.58 -1939.52 1266.13 C-1932.58 1224.16 -1925.58 1182.21 -1917.76 1140.4 C-1917.32 1138.02 -1916.87 1135.64 -1916.43 1133.26 C-1903.76 1065.32 -1903.76 1065.32 -1879.78 1048.78 C-1864.29 1039.15 -1847.3 1035.63 -1829.21 1035.68 C-1827.13 1035.69 -1825.06 1035.66 -1822.98 1035.64 C-1808.02 1035.57 -1793.04 1038.2 -1781.62 1048.62 C-1769.17 1062.17 -1769.09 1079.17 -1769.62 1096.48 C-1770.21 1110.15 -1773.06 1123.61 -1775.62 1137.01 C-1776.42 1141.24 -1777.19 1145.48 -1777.97 1149.71 C-1779.43 1157.69 -1780.92 1165.66 -1782.41 1173.63 C-1784.62 1185.34 -1786.77 1197.07 -1788.94 1208.79 C-1789.26 1210.53 -1789.58 1212.27 -1789.9 1214 C-1790.05 1214.85 -1790.21 1215.7 -1790.37 1216.58 C-1791.3 1221.59 -1792.23 1226.59 -1793.17 1231.6 C-1793.75 1234.71 -1794.33 1237.82 -1794.91 1240.93 C-1795.18 1242.36 -1795.44 1243.79 -1795.71 1245.22 C-1797.15 1252.8 -1798.42 1260.3 -1799 1268 C-1790.73 1268.22 -1782.86 1267.68 -1774.69 1266.38 C-1773.57 1266.2 -1772.44 1266.02 -1771.29 1265.84 C-1719.5 1257.25 -1668.85 1231.88 -1637.35 1188.84 C-1610.1 1150.57 -1598.55 1104.28 -1606.4 1057.65 C-1610.4 1036.33 -1619.22 1016.06 -1634 1000 C-1634.47 999.48 -1634.95 998.97 -1635.44 998.43 C-1668.11 963.24 -1715.56 953.11 -1761.87 951.15 C-1853.19 948.1 -1935.35 981.1 -1998.85 1046.71 Z M-1180 1334 C-1180.82 1334.66 -1181.64 1335.31 -1182.49 1335.99 C-1211.98 1361.04 -1225.34 1403.86 -1228.69 1441.15 C-1229.78 1454.56 -1229.78 1454.56 -1230 1468 C-1194.27 1464.86 -1155.76 1444.28 -1130 1420 C-1128.86 1418.97 -1128.86 1418.97 -1127.7 1417.93 C-1112.58 1403.77 -1104.05 1384.07 -1103.01 1363.51 C-1102.98 1351.55 -1106.16 1341.34 -1113.25 1331.62 C-1132.24 1313.49 -1160.96 1318.66 -1180 1334 Z M-761.75 1353.96 C-763.31 1355.37 -764.93 1356.73 -766.59 1358.04 C-770.2 1360.98 -773 1364.45 -776 1368 C-776.72 1368.81 -777.44 1369.62 -778.18 1370.45 C-815.29 1413.1 -835.53 1472.53 -831.7 1529.01 C-830.13 1547.96 -827.13 1566.62 -813.41 1581 C-803.28 1589.41 -791.02 1592.47 -778 1591.94 C-755.02 1589.33 -736.39 1571.52 -722.58 1554.28 C-721.72 1553.19 -720.86 1552.09 -720 1551 C-719.47 1550.33 -718.93 1549.65 -718.38 1548.96 C-714.77 1544.39 -711.19 1539.79 -707.66 1535.15 C-706.16 1533.2 -704.62 1531.29 -703.07 1529.38 C-702.23 1528.29 -701.4 1527.21 -700.56 1526.12 C-699.84 1525.22 -699.12 1524.32 -698.38 1523.38 C-696.25 1518.15 -697.23 1513.5 -698 1508 C-698.21 1506.39 -698.21 1506.39 -698.42 1504.76 C-698.72 1502.53 -699.02 1500.31 -699.33 1498.09 C-704.73 1459.09 -705.41 1420.43 -705.21 1381.09 C-705.18 1374.96 -705.16 1368.83 -705.15 1362.71 C-705.12 1348.8 -705.07 1334.9 -705 1321 C-723.85 1321 -748.9 1342.03 -761.75 1353.96 Z " fill="#D3213E" transform="translate(2872,23)"/>
<path d="M0 0 C3.66 0 7.31 -0.02 10.97 -0.05 C60.96 -0.18 114.74 10.07 154.49 42.32 C155.03 42.75 155.57 43.19 156.12 43.64 C187.81 69.5 208.86 103.94 218.74 143.57 C218.98 144.49 219.21 145.42 219.45 146.37 C223.62 164.13 225 182.1 224.88 200.3 C224.87 203.32 224.88 206.33 224.9 209.35 C224.94 246.28 218.02 287.92 192.49 316.32 C191.89 317.01 191.29 317.7 190.67 318.42 C180.76 329.15 166.28 336.6 151.59 337.49 C130.56 337.9 109.5 337.7 93.23 322.21 C80.99 308.9 80.76 293.94 81.3 276.76 C81.85 266.93 83.71 257.24 85.43 247.57 C91.09 215.22 95.81 177.9 76.05 149 C74.88 147.43 73.69 145.87 72.49 144.32 C72.05 143.7 71.62 143.09 71.17 142.46 C58.77 126.23 35.6 119.22 16.26 116.53 C-40.54 109.8 -95.59 130.37 -140.01 164.94 C-146.83 170.38 -153.23 176.27 -159.51 182.32 C-160.29 183.07 -160.29 183.07 -161.1 183.84 C-168.12 190.6 -174.51 197.62 -180.51 205.32 C-181.31 206.32 -182.11 207.33 -182.93 208.37 C-238.66 278.97 -261.16 370.23 -264.07 458.69 C-264.14 460.47 -264.14 460.47 -264.2 462.28 C-266.29 523.56 -257.97 588.16 -221.51 639.32 C-221.09 639.9 -220.68 640.48 -220.25 641.09 C-214.38 649.22 -207.81 656.64 -200.88 663.88 C-199.68 665.13 -198.51 666.4 -197.34 667.68 C-181.46 684.48 -160.35 696.71 -139.51 706.32 C-138.8 706.65 -138.09 706.98 -137.35 707.32 C-102.51 723.32 -63.71 729.47 -25.7 731.57 C-24.95 731.61 -24.21 731.65 -23.44 731.69 C-7.12 732.57 9.11 732.42 25.43 731.57 C26.25 731.52 27.06 731.48 27.91 731.44 C83.56 728.43 137.73 715.97 190.49 698.32 C191.63 697.94 191.63 697.94 192.79 697.55 C198.28 695.72 203.76 693.87 209.24 692 C209.96 691.76 210.67 691.52 211.41 691.27 C220.23 688.26 228.89 685.02 237.49 681.43 C240.49 680.32 240.49 680.32 243.49 680.32 C243.46 679.46 243.42 678.61 243.39 677.73 C241.73 601.37 278.38 522.52 329.17 466.86 C330.79 465.08 332.4 463.29 334 461.49 C338.25 456.72 342.51 452.2 347.41 448.09 C348.88 446.83 350.32 445.53 351.73 444.19 C366.66 430.05 383.79 418.68 401.49 408.32 C402.14 407.93 402.8 407.54 403.47 407.14 C421.88 396.3 442.68 388.92 463.49 384.32 C464.43 384.11 465.36 383.9 466.33 383.68 C479.6 380.86 492.71 379.92 506.24 379.82 C507.31 379.8 507.31 379.8 508.41 379.78 C519.03 379.66 530.74 380.1 539.37 387.07 C546.53 395.35 550.38 407.63 551.49 418.32 C552.65 418.1 553.81 417.88 555 417.66 C567.53 415.54 579.88 414.98 592.55 414.94 C593.34 414.93 594.13 414.93 594.95 414.92 C609.76 414.8 624.55 415.87 636.37 425.91 C643 432.94 645.23 441.95 645.12 451.38 C645.11 452.39 645.1 453.41 645.09 454.46 C644.12 488.69 635.52 523.14 629.18 556.66 C620.66 601.63 620.66 601.63 613.43 646.82 C613.29 647.78 613.15 648.74 613 649.73 C604.31 693.06 604.31 693.06 614.49 733.32 C619.12 738.7 624.52 741.21 631.49 742.32 C648.5 743.21 664.73 730.7 676.71 719.93 C677.3 719.4 677.89 718.86 678.49 718.32 C679.12 717.75 679.75 717.18 680.4 716.59 C689.65 708.2 698.36 699.41 706.78 690.18 C708.53 688.27 710.3 686.37 712.08 684.47 C712.66 683.85 713.24 683.22 713.85 682.58 C714.94 681.41 716.04 680.23 717.14 679.06 C717.64 678.52 718.14 677.99 718.65 677.44 C719.08 676.98 719.51 676.52 719.95 676.04 C720.46 675.47 720.97 674.9 721.49 674.32 C722.36 673.43 723.23 672.55 724.12 671.63 C727.04 668.08 727.24 664.56 727.28 660.09 C727.3 659.29 727.33 658.48 727.36 657.65 C727.41 655.91 727.46 654.17 727.49 652.43 C727.6 647.69 727.79 642.96 727.98 638.22 C728.02 637.23 728.05 636.25 728.09 635.24 C730.44 576.62 740.55 517.73 756.49 461.32 C756.77 460.32 756.77 460.32 757.06 459.3 C768.36 419.46 768.36 419.46 781.49 405.32 C782.28 404.39 782.28 404.39 783.09 403.44 C796.38 388.78 817.78 382.99 836.99 382.03 C840.72 381.91 844.44 381.89 848.18 381.92 C850.45 381.94 852.73 381.92 855 381.91 C865.15 381.89 875.5 382.27 883.49 389.32 C891.36 401.26 887.98 416.6 885.35 429.79 C881.54 448.25 876.73 466.49 872.12 484.76 C861.36 527.4 851.62 570.34 848.49 614.32 C848.77 613.62 849.05 612.91 849.34 612.19 C867.54 566.87 888.75 522.32 918.49 483.32 C919.2 482.38 919.2 482.38 919.92 481.43 C936.71 459.41 955.41 437.17 977.49 420.32 C978.31 419.68 978.31 419.68 979.15 419.03 C998.89 403.81 1020.52 392.27 1044.49 385.32 C1046.2 384.8 1046.2 384.8 1047.94 384.28 C1069.14 378.99 1094.44 380.11 1113.81 390.63 C1127.3 399.11 1133.44 411.38 1137.49 426.32 C1142.06 449.73 1138.16 476.05 1134.49 499.32 C1134.31 500.47 1134.31 500.47 1134.12 501.66 C1128.97 534.07 1122.07 566.16 1115.4 598.28 C1096.62 665.66 1096.62 665.66 1104.77 731.76 C1108.81 737.84 1113.88 740.21 1120.83 741.88 C1135.15 744.11 1148.57 736.97 1159.91 728.96 C1171.89 720.1 1182.48 709.5 1192.97 698.97 C1194.65 697.29 1196.33 695.61 1198.01 693.93 C1199.09 692.85 1200.17 691.77 1201.25 690.69 C1201.75 690.19 1202.25 689.7 1202.76 689.19 C1206.91 685.01 1208.71 682.5 1208.98 676.59 C1209.05 675.43 1209.11 674.26 1209.17 673.06 C1209.27 671.18 1209.27 671.18 1209.37 669.25 C1213.72 597.48 1241.92 527.42 1289.49 473.32 C1290.1 472.61 1290.71 471.9 1291.34 471.16 C1293.04 469.2 1294.76 467.25 1296.49 465.32 C1297.35 464.36 1298.2 463.4 1299.08 462.41 C1303.63 457.34 1308.21 452.44 1313.44 448.06 C1314.91 446.81 1316.33 445.52 1317.73 444.2 C1332.66 430.05 1349.79 418.68 1367.49 408.32 C1368.14 407.93 1368.8 407.54 1369.47 407.14 C1387.88 396.3 1408.68 388.92 1429.49 384.32 C1430.43 384.11 1431.36 383.9 1432.33 383.68 C1445.6 380.86 1458.71 379.92 1472.24 379.82 C1473.31 379.8 1473.31 379.8 1474.41 379.78 C1485.03 379.66 1496.74 380.1 1505.37 387.07 C1512.53 395.35 1516.38 407.63 1517.49 418.32 C1518.65 418.1 1519.81 417.88 1521 417.66 C1533.53 415.54 1545.88 414.98 1558.55 414.94 C1559.74 414.93 1559.74 414.93 1560.95 414.92 C1575.76 414.8 1590.55 415.87 1602.37 425.91 C1609 432.94 1611.23 441.95 1611.12 451.38 C1611.11 452.39 1611.1 453.41 1611.09 454.46 C1610.12 488.69 1601.52 523.14 1595.18 556.66 C1586.66 601.63 1586.66 601.63 1579.43 646.82 C1579.29 647.78 1579.15 648.74 1579 649.73 C1570.31 693.06 1570.31 693.06 1580.49 733.32 C1585.12 738.7 1590.52 741.21 1597.49 742.32 C1614.5 743.21 1630.73 730.7 1642.71 719.93 C1643.3 719.4 1643.89 718.86 1644.49 718.32 C1645.12 717.75 1645.75 717.18 1646.4 716.59 C1655.65 708.2 1664.36 699.41 1672.78 690.18 C1674.53 688.27 1676.3 686.37 1678.08 684.47 C1678.66 683.85 1679.24 683.22 1679.85 682.58 C1680.94 681.41 1682.04 680.23 1683.14 679.06 C1683.89 678.26 1683.89 678.26 1684.65 677.44 C1685.3 676.75 1685.3 676.75 1685.95 676.04 C1686.46 675.47 1686.97 674.9 1687.49 674.32 C1688.36 673.43 1689.23 672.55 1690.12 671.63 C1693.04 668.08 1693.24 664.56 1693.28 660.09 C1693.3 659.29 1693.33 658.48 1693.36 657.65 C1693.41 655.91 1693.46 654.17 1693.49 652.43 C1693.6 647.69 1693.79 642.96 1693.98 638.22 C1694.02 637.23 1694.05 636.25 1694.09 635.24 C1696.44 576.62 1706.55 517.73 1722.49 461.32 C1722.77 460.32 1722.77 460.32 1723.06 459.3 C1734.36 419.46 1734.36 419.46 1747.49 405.32 C1748.02 404.7 1748.55 404.08 1749.09 403.44 C1762.38 388.78 1783.78 382.99 1802.99 382.03 C1806.72 381.91 1810.44 381.89 1814.18 381.92 C1816.45 381.94 1818.73 381.92 1821 381.91 C1831.15 381.89 1841.5 382.27 1849.49 389.32 C1857.36 401.26 1853.98 416.6 1851.35 429.79 C1847.54 448.25 1842.73 466.49 1838.12 484.76 C1827.36 527.4 1817.62 570.34 1814.49 614.32 C1814.77 613.62 1815.05 612.91 1815.34 612.19 C1833.54 566.87 1854.75 522.32 1884.49 483.32 C1884.96 482.69 1885.44 482.07 1885.92 481.43 C1902.71 459.41 1921.41 437.17 1943.49 420.32 C1944.04 419.89 1944.59 419.47 1945.15 419.03 C1964.89 403.81 1986.52 392.27 2010.49 385.32 C2012.2 384.8 2012.2 384.8 2013.94 384.28 C2035.14 378.99 2060.44 380.11 2079.81 390.63 C2093.3 399.11 2099.44 411.38 2103.49 426.32 C2109.67 453.9 2101.04 485.29 2096.12 512.44 C2095.92 513.55 2095.72 514.67 2095.51 515.82 C2094.52 521.31 2093.51 526.8 2092.48 532.29 C2086.71 560.65 2086.71 560.65 2095.49 587.32 C2101.14 592.83 2106.77 594.2 2114.49 594.32 C2125.9 593.32 2136.47 588.22 2146.18 582.44 C2146.87 582.04 2147.57 581.64 2148.29 581.23 C2149.26 580.63 2149.26 580.63 2150.25 580.01 C2150.83 579.66 2151.41 579.31 2152 578.95 C2155.86 574.71 2156.06 567.63 2157.01 562.13 C2157.31 560.49 2157.6 558.85 2157.9 557.21 C2158.06 556.34 2158.21 555.48 2158.37 554.58 C2164.27 522.2 2172.18 490.27 2181.87 458.82 C2182.23 457.64 2182.23 457.64 2182.6 456.44 C2198.33 405.62 2198.33 405.62 2221.49 391.32 C2233.96 384.81 2248.4 382.23 2262.37 382.08 C2263.11 382.07 2263.85 382.06 2264.6 382.05 C2266.16 382.04 2267.71 382.03 2269.26 382.02 C2270.82 382.01 2272.38 381.99 2273.94 381.96 C2285.34 381.74 2296.96 381.94 2306.55 389 C2312.21 394.72 2313.76 400.62 2314.12 408.57 C2314 416.38 2312.56 423.83 2310.94 431.46 C2310.68 432.72 2310.41 433.98 2310.14 435.28 C2307.47 447.82 2304.37 460.26 2301.23 472.69 C2294.13 500.74 2287.6 528.82 2282.49 557.32 C2282.29 558.46 2282.08 559.59 2281.87 560.77 C2264.16 631.51 2264.16 631.51 2273.49 700.32 C2274.05 701.26 2274.6 702.21 2275.18 703.19 C2279.06 706.76 2283.46 708.39 2288.76 708.26 C2294.95 707.2 2299.59 704.1 2304.49 700.32 C2305.49 699.54 2305.49 699.54 2306.52 698.75 C2320.87 686.93 2331.4 669.36 2340.49 653.32 C2340.97 652.47 2341.45 651.63 2341.94 650.76 C2374.68 592.63 2396.2 528.14 2414.23 464.14 C2414.7 462.49 2414.7 462.49 2415.17 460.81 C2416.67 455.5 2418.15 450.18 2419.61 444.86 C2423.79 429.75 2428.31 414.58 2438.49 402.32 C2439.13 401.54 2439.78 400.76 2440.44 399.96 C2451.42 387.86 2467.39 382.97 2483.31 382.11 C2487.64 381.95 2491.97 381.9 2496.3 381.88 C2497.01 381.87 2497.71 381.87 2498.43 381.86 C2510.05 381.79 2522.2 382.07 2531.81 389.33 C2539.91 398.9 2538.41 410.54 2537.49 422.32 C2536.81 429.11 2535.87 435.88 2534.95 442.65 C2534.82 443.62 2534.69 444.59 2534.56 445.59 C2531.53 468.01 2527.83 490.3 2524.04 512.6 C2523.1 518.14 2522.17 523.69 2521.23 529.23 C2520.09 536.04 2518.95 542.85 2517.8 549.65 C2514.23 570.8 2510.72 591.96 2507.24 613.13 C2507.1 613.98 2506.96 614.83 2506.82 615.71 C2502.34 642.87 2497.93 670.04 2493.56 697.21 C2493.12 699.92 2492.68 702.63 2492.24 705.34 C2491.57 709.55 2490.89 713.75 2490.22 717.96 C2489.97 719.5 2489.72 721.04 2489.47 722.58 C2489.13 724.68 2488.8 726.79 2488.46 728.89 C2488.27 730.06 2488.08 731.24 2487.89 732.45 C2487.42 735.33 2487.42 735.33 2487.49 738.32 C2487.97 737.96 2488.44 737.61 2488.93 737.25 C2489.95 736.51 2489.95 736.51 2490.98 735.75 C2491.74 735.19 2492.5 734.63 2493.28 734.05 C2494.99 732.79 2496.69 731.54 2498.4 730.28 C2502.72 727.1 2507.04 723.91 2511.35 720.73 C2526.9 709.24 2542.56 697.92 2558.38 686.8 C2560.51 685.3 2562.64 683.79 2564.77 682.28 C2565.49 681.78 2566.21 681.27 2566.95 680.75 C2568.27 679.81 2569.59 678.88 2570.91 677.94 C2578.38 672.65 2585.94 667.49 2593.49 662.32 C2594.32 661.75 2595.15 661.18 2596.01 660.59 C2601.49 656.84 2606.97 653.1 2612.47 649.37 C2614.37 648.08 2616.27 646.78 2618.17 645.48 C2620.96 643.56 2623.77 641.66 2626.57 639.76 C2627.41 639.19 2628.24 638.61 2629.1 638.02 C2640.88 630.08 2651.26 626.3 2665.49 627.32 C2672.68 628.97 2676.69 634.3 2680.49 640.32 C2689.28 656.22 2689.27 679.19 2684.87 696.44 C2678.77 716.28 2665.02 726.7 2648.41 737.71 C2641.61 742.23 2634.83 746.77 2628.07 751.34 C2627.18 751.94 2626.29 752.54 2625.37 753.16 C2621.73 755.61 2618.09 758.07 2614.46 760.53 C2603.78 767.74 2593.09 774.93 2582.37 782.06 C2572.54 788.6 2562.77 795.21 2552.99 801.82 C2542.37 808.99 2531.74 816.16 2521.07 823.26 C2513.72 828.15 2506.4 833.07 2499.1 838.03 C2497.22 839.3 2495.34 840.58 2493.46 841.85 C2490.59 843.8 2487.72 845.74 2484.86 847.69 C2482.03 849.62 2479.19 851.54 2476.35 853.46 C2475.49 854.05 2474.63 854.64 2473.73 855.25 C2472.94 855.79 2472.15 856.32 2471.33 856.88 C2470.29 857.59 2470.29 857.59 2469.22 858.31 C2467.49 859.32 2467.49 859.32 2465.49 859.32 C2465.44 859.99 2465.39 860.67 2465.34 861.37 C2464.81 867.8 2463.93 874.04 2462.66 880.36 C2462.48 881.3 2462.29 882.24 2462.1 883.21 C2461.49 886.31 2460.87 889.41 2460.24 892.5 C2460.02 893.58 2459.81 894.67 2459.58 895.78 C2448.59 950.27 2435.46 1004.36 2418.49 1057.32 C2418.26 1058.05 2418.02 1058.79 2417.78 1059.55 C2401.91 1109.15 2383.26 1159.43 2356.49 1204.32 C2355.81 1205.46 2355.81 1205.46 2355.11 1206.63 C2346.19 1221.46 2336.26 1235.52 2324.45 1248.2 C2322.64 1250.15 2320.94 1252.15 2319.24 1254.19 C2295.55 1281.13 2262.03 1298.87 2226.49 1303.32 C2191.81 1304.85 2191.81 1304.85 2175.49 1300.32 C2174.77 1300.12 2174.05 1299.92 2173.31 1299.71 C2145.44 1291.8 2122.19 1274.68 2107.91 1249.17 C2097.54 1229.93 2093.87 1210.05 2094.05 1188.38 C2094.06 1187.58 2094.06 1186.78 2094.06 1185.95 C2094.45 1122.72 2123.55 1066.52 2162.49 1018.32 C2163.61 1016.92 2163.61 1016.92 2164.76 1015.5 C2174.08 1004 2183.77 992.88 2193.88 982.07 C2195.03 980.82 2196.16 979.56 2197.27 978.29 C2204.15 970.49 2211.48 963.18 2218.83 955.85 C2221.06 953.63 2223.28 951.4 2225.5 949.17 C2226.93 947.74 2228.37 946.3 2229.81 944.87 C2230.79 943.88 2230.79 943.88 2231.78 942.88 C2235.62 939.07 2239.56 935.43 2243.66 931.9 C2246.68 929.29 2249.58 926.55 2252.49 923.82 C2257.42 919.22 2262.37 914.69 2267.49 910.32 C2268.52 909.43 2269.56 908.54 2270.59 907.65 C2272.99 905.6 2275.38 903.55 2277.78 901.5 C2280.2 899.43 2282.61 897.35 2285.01 895.26 C2291.32 889.8 2297.72 884.5 2304.31 879.39 C2308.29 876.29 2312.16 873.1 2315.99 869.82 C2322.67 864.11 2329.55 858.7 2336.49 853.32 C2338.06 852.09 2339.63 850.87 2341.2 849.65 C2343.59 847.8 2345.97 845.94 2348.36 844.09 C2349.09 843.52 2349.81 842.96 2350.56 842.38 C2351.24 841.85 2351.92 841.33 2352.62 840.78 C2354.24 839.52 2355.82 838.21 2357.39 836.91 C2359.49 835.32 2359.49 835.32 2361.49 835.32 C2361.45 834.27 2361.41 833.22 2361.37 832.14 C2361.38 826.03 2362.5 820.09 2363.49 814.07 C2363.83 811.98 2364.16 809.89 2364.49 807.8 C2364.74 806.25 2364.99 804.71 2365.24 803.16 C2366.9 792.84 2368.49 782.5 2370.09 772.16 C2370.6 768.84 2371.12 765.53 2371.64 762.21 C2373.8 748.27 2375.74 734.31 2377.49 720.32 C2377.25 721.04 2377 721.76 2376.75 722.51 C2360.17 770.97 2335.44 821.12 2287.49 845.32 C2267.43 854.45 2243.45 857.15 2222.12 850.7 C2210.52 846.27 2200.65 840.84 2191.49 832.32 C2190.1 831.05 2190.1 831.05 2188.69 829.76 C2156.3 798.89 2146.86 753.38 2145.8 710.44 C2145.67 704.73 2145.57 699.02 2145.49 693.32 C2144.98 693.53 2144.48 693.75 2143.96 693.97 C2134.66 697.9 2125.39 701.61 2115.62 704.19 C2114.91 704.38 2114.2 704.57 2113.46 704.77 C2101.27 707.83 2089.12 708.67 2076.62 708.63 C2074.26 708.63 2071.9 708.65 2069.54 708.68 C2040.67 708.8 2012.98 700.97 1991.74 680.69 C1972.8 660.82 1966.28 636.12 1966.24 609.32 C1966.24 608.18 1966.24 608.18 1966.23 607.02 C1966.23 595.66 1967.03 584.71 1968.75 573.47 C1969.54 568.28 1970 563.11 1970.3 557.88 C1970.38 556.75 1970.38 556.75 1970.46 555.6 C1970.77 549.65 1970 544.26 1967.24 538.88 C1964.63 536.55 1962.99 536.38 1959.49 536.32 C1951.66 537.61 1946.27 542.15 1940.49 547.32 C1939.9 547.84 1939.3 548.36 1938.69 548.9 C1920.84 565.69 1908.09 589.04 1896.49 610.32 C1896.01 611.19 1895.53 612.07 1895.03 612.98 C1881.12 638.49 1869.73 665.15 1859.49 692.32 C1859.11 693.32 1858.72 694.33 1858.33 695.36 C1848.6 720.85 1841.27 747.12 1834.5 773.52 C1819.7 831.24 1819.7 831.24 1798.86 846 C1787.68 852.19 1776.37 853.52 1763.87 853.63 C1762.75 853.66 1761.64 853.69 1760.49 853.72 C1746.04 853.83 1733.91 848.62 1723.37 838.82 C1713.07 828 1703.01 808.6 1702.37 793.38 C1702.41 792.7 1702.45 792.02 1702.49 791.32 C1698.23 794.01 1694.65 796.88 1690.99 800.38 C1685.04 805.94 1678.78 811.01 1672.3 815.94 C1671.1 816.85 1669.91 817.77 1668.71 818.69 C1637.4 842.91 1601.99 857.42 1561.85 853.03 C1557.21 852.28 1552.9 850.95 1548.49 849.32 C1547.83 849.07 1547.18 848.83 1546.5 848.58 C1513.51 836.17 1492.51 808.41 1478.36 777.35 C1477.49 775.32 1477.49 775.32 1476.49 772.32 C1475.74 773.32 1474.99 774.32 1474.22 775.36 C1471.51 778.97 1468.8 782.58 1466.09 786.19 C1464.68 788.06 1463.29 789.94 1461.89 791.82 C1453.81 802.56 1445.02 812.88 1434.49 821.32 C1433.56 822.08 1432.63 822.85 1431.67 823.64 C1406.99 843.62 1376.96 854.03 1345.3 853.75 C1344.16 853.75 1344.16 853.75 1343 853.74 C1307.29 853.51 1276.9 841.26 1251.6 815.86 C1232.49 796 1232.49 796 1232.49 788.32 C1231.88 788.81 1231.27 789.31 1230.65 789.83 C1228.75 791.39 1226.84 792.94 1224.94 794.5 C1222.55 796.45 1220.17 798.41 1217.8 800.39 C1181.47 830.45 1139.07 853.06 1090.78 853.55 C1089.98 853.56 1089.19 853.57 1088.36 853.58 C1057.92 853.88 1030.45 851.31 1006.49 830.32 C1005.8 829.72 1005.11 829.13 1004.41 828.52 C984.25 809.88 976.17 779.1 975.08 752.5 C974.98 748.67 974.97 744.84 974.99 741 C974.99 739.76 974.99 739.76 975 738.49 C975.2 702.95 982.87 668.08 989.49 633.32 C996.04 600.48 996.04 600.48 1000.49 567.32 C1000.57 566.48 1000.65 565.64 1000.73 564.78 C1000.94 562.31 1001.13 559.85 1001.3 557.38 C1001.38 556.32 1001.38 556.32 1001.47 555.24 C1001.78 549.4 1000.93 544.12 998.24 538.88 C995.67 536.58 993.93 536.38 990.49 536.32 C961.83 545.34 943.8 587.03 930.6 611.28 C929.6 613.12 928.57 614.96 927.55 616.79 C909.35 649.88 895.45 685.56 883.49 721.32 C883.09 722.5 882.7 723.68 882.29 724.89 C878.27 737.02 874.74 749.22 871.55 761.58 C871.16 763.08 871.16 763.08 870.77 764.6 C869.49 769.56 868.23 774.53 867 779.5 C861.01 803.37 854.06 830.99 832.86 846 C821.68 852.19 810.37 853.52 797.87 853.63 C796.75 853.66 795.64 853.69 794.49 853.72 C780.04 853.83 767.91 848.62 757.37 838.82 C747.07 828 737.01 808.6 736.37 793.38 C736.43 792.36 736.43 792.36 736.49 791.32 C732.23 794.01 728.65 796.88 724.99 800.38 C719.04 805.94 712.78 811.01 706.3 815.94 C705.1 816.85 703.91 817.77 702.71 818.69 C671.4 842.91 635.99 857.42 595.85 853.03 C591.21 852.28 586.9 850.95 582.49 849.32 C581.83 849.07 581.18 848.83 580.5 848.58 C547.51 836.17 526.51 808.41 512.36 777.35 C511.49 775.32 511.49 775.32 510.49 772.32 C509.74 773.32 508.99 774.32 508.22 775.36 C505.51 778.97 502.8 782.58 500.09 786.19 C498.68 788.06 497.29 789.94 495.89 791.82 C487.81 802.56 479.02 812.88 468.49 821.32 C467.56 822.08 466.63 822.85 465.67 823.64 C440.99 843.62 410.96 854.03 379.3 853.75 C378.16 853.75 378.16 853.75 377 853.74 C341.26 853.51 310.95 841.24 285.61 815.87 C279.52 809.55 274.45 802.54 269.49 795.32 C263.4 797.26 257.5 799.48 251.57 801.88 C175.33 832.69 90.91 851.16 -3.41 853.52 C-4.13 853.52 -4.86 853.52 -5.61 853.53 C-9.47 853.54 -13.32 853.55 -17.18 853.56 C-20.28 853.56 -23.39 853.57 -26.49 853.6 C-54.32 853.8 -81.93 852.43 -109.45 848 C-110.11 847.9 -110.77 847.8 -111.45 847.69 C-177.81 837.25 -243.46 812.64 -295.51 769.32 C-296.38 768.63 -297.26 767.94 -298.16 767.23 C-314.91 753.66 -330.85 737.76 -343.51 720.32 C-345.15 718.25 -346.8 716.19 -348.45 714.13 C-369.69 686.7 -384.98 654.21 -395.51 621.32 C-395.81 620.38 -396.12 619.44 -396.43 618.47 C-404.38 593.75 -408.92 568.12 -411.51 542.32 C-411.6 541.45 -411.68 540.58 -411.77 539.69 C-412.51 531.65 -412.68 523.67 -412.71 515.6 C-412.72 514.2 -412.73 512.8 -412.73 511.39 C-412.75 506.91 -412.76 502.42 -412.76 497.94 C-412.76 497.18 -412.76 496.41 -412.76 495.63 C-412.77 471.73 -412.32 448.07 -409.51 424.32 C-409.34 422.8 -409.16 421.28 -408.99 419.76 C-401.2 352.51 -382.83 288.9 -352.51 228.32 C-352.03 227.36 -351.56 226.4 -351.07 225.42 C-335.79 194.73 -316.42 166.61 -294.51 140.32 C-294.09 139.81 -293.68 139.31 -293.25 138.79 C-285.84 129.9 -278.03 121.52 -269.82 113.36 C-267.94 111.49 -266.07 109.61 -264.2 107.73 C-257.27 100.8 -250.21 94.38 -242.51 88.32 C-241.24 87.26 -239.97 86.19 -238.71 85.12 C-187.17 41.89 -123.69 14.93 -57.63 4.07 C-56.72 3.91 -55.81 3.76 -54.87 3.61 C-36.61 0.78 -18.46 -0.03 0 0 Z M438.49 512.32 C437.51 513.24 436.53 514.16 435.55 515.07 C390.08 558.2 371.02 624.45 368.49 685.32 C367.98 705.03 370.32 725.42 384.12 740.57 C393.08 748.96 404.05 752.22 416.15 752.34 C428.34 751.59 437.31 746.01 446.49 738.32 C447.13 737.78 447.76 737.25 448.42 736.7 C467.02 719.52 477.25 693.64 483.41 669.7 C483.67 668.71 483.92 667.73 484.18 666.71 C487.08 655.28 489.38 643.73 491.65 632.16 C492.12 629.79 492.59 627.42 493.07 625.04 C494.31 618.78 495.55 612.51 496.79 606.24 C498.07 599.76 499.36 593.29 500.64 586.81 C500.9 585.53 501.15 584.25 501.42 582.93 C501.93 580.35 502.44 577.77 502.95 575.19 C503.71 571.36 504.47 567.53 505.23 563.7 C508.08 549.35 510.96 535.02 513.89 520.69 C514.05 519.92 514.21 519.14 514.37 518.34 C515.66 512.05 516.95 505.76 518.25 499.48 C518.99 495.91 519.72 492.33 520.46 488.76 C520.67 487.75 520.88 486.74 521.1 485.7 C521.28 484.79 521.47 483.88 521.66 482.93 C521.82 482.15 521.99 481.38 522.15 480.57 C522.52 478.12 522.55 475.79 522.49 473.32 C490.11 473.32 460.98 490.32 438.49 512.32 Z M1404.49 512.32 C1403.51 513.24 1402.53 514.16 1401.55 515.07 C1356.08 558.2 1337.02 624.45 1334.49 685.32 C1333.98 705.03 1336.32 725.42 1350.12 740.57 C1359.08 748.96 1370.05 752.22 1382.15 752.34 C1394.34 751.59 1403.31 746.01 1412.49 738.32 C1413.13 737.78 1413.76 737.25 1414.42 736.7 C1433.02 719.52 1443.25 693.64 1449.41 669.7 C1449.67 668.71 1449.92 667.73 1450.18 666.71 C1453.08 655.28 1455.38 643.73 1457.65 632.16 C1458.12 629.79 1458.59 627.42 1459.07 625.04 C1460.31 618.78 1461.55 612.51 1462.79 606.24 C1464.07 599.76 1465.36 593.29 1466.64 586.81 C1466.9 585.53 1467.15 584.25 1467.42 582.93 C1467.93 580.35 1468.44 577.77 1468.95 575.19 C1469.71 571.36 1470.47 567.53 1471.23 563.7 C1474.08 549.35 1476.96 535.02 1479.89 520.69 C1480.05 519.92 1480.21 519.14 1480.37 518.34 C1481.66 512.05 1482.95 505.76 1484.25 499.48 C1484.99 495.91 1485.72 492.33 1486.46 488.76 C1486.67 487.75 1486.88 486.74 1487.1 485.7 C1487.28 484.79 1487.47 483.88 1487.66 482.93 C1487.82 482.15 1487.99 481.38 1488.15 480.57 C1488.52 478.12 1488.55 475.79 1488.49 473.32 C1456.11 473.32 1426.98 490.32 1404.49 512.32 Z M2336.49 957.32 C2335.9 957.86 2335.3 958.41 2334.69 958.97 C2330.2 963.05 2325.67 967.02 2320.93 970.82 C2316.62 974.3 2312.68 977.98 2308.85 981.98 C2306.89 983.92 2304.89 985.71 2302.8 987.51 C2298.77 991.03 2294.95 994.71 2291.17 998.5 C2290.18 999.49 2290.18 999.49 2289.17 1000.5 C2287.79 1001.88 2286.41 1003.26 2285.03 1004.65 C2282.93 1006.75 2280.83 1008.84 2278.74 1010.93 C2277.38 1012.29 2276.03 1013.64 2274.67 1015 C2274.06 1015.61 2273.44 1016.23 2272.81 1016.86 C2268.5 1021.19 2264.47 1025.7 2260.49 1030.32 C2259.57 1031.36 2258.64 1032.41 2257.71 1033.46 C2225.54 1070.07 2190.53 1121.05 2192.62 1172.07 C2193.75 1184.3 2196.9 1194.35 2206.12 1202.69 C2212.66 1205.84 2219.57 1207.19 2226.68 1205.32 C2231.84 1203.43 2236.15 1200.64 2240.49 1197.32 C2241.14 1196.84 2241.78 1196.36 2242.44 1195.86 C2296.24 1152.57 2314.04 1053.72 2329.88 990.63 C2330.43 988.44 2330.98 986.26 2331.53 984.08 C2332.4 980.64 2333.25 977.2 2334.1 973.75 C2334.57 971.86 2335.05 969.97 2335.52 968.07 C2335.8 966.95 2336.07 965.82 2336.36 964.66 C2336.72 963.17 2336.72 963.17 2337.1 961.66 C2337.73 959.3 2337.73 959.3 2336.49 957.32 Z " fill="#FEFEFE" transform="translate(3260.509033203125,863.684326171875)"/>
<path d="M0 0 C0.33 0.66 0.66 1.32 1 2 C1.99 2.33 2.98 2.66 4 3 C5.38 5.36 6.59 7.66 7.75 10.12 C8.27 11.2 8.27 11.2 8.81 12.3 C9.88 14.53 10.94 16.77 12 19 C12.62 20.29 13.24 21.58 13.87 22.87 C15.35 25.96 16.78 29.07 18.18 32.2 C18.95 33.9 19.75 35.58 20.56 37.25 C24.21 45.43 26.27 53.75 28.12 62.5 C28.35 63.56 28.58 64.63 28.82 65.73 C29.64 69.8 30.33 73.89 31 78 C31.17 78.98 31.34 79.96 31.51 80.97 C35.5 104.81 35.52 128.39 35.33 152.5 C35.31 156.64 35.3 160.77 35.29 164.91 C35.28 169.88 35.26 174.85 35.24 179.82 C35.23 180.75 35.23 181.68 35.23 182.65 C35.22 185.28 35.2 187.91 35.18 190.55 C35.17 191.32 35.17 192.09 35.17 192.89 C35.13 197.03 34.76 200.93 34 205 C33.8 207.67 33.63 210.33 33.5 213 C33.44 214.12 33.44 214.12 33.38 215.27 C33.25 217.66 33.12 220.05 33 222.44 C32.84 225.58 32.67 228.73 32.5 231.87 C32.46 232.58 32.43 233.29 32.39 234.02 C32.16 238.41 31.68 242.67 31 247 C30.67 247 30.34 247 30 247 C30.06 245.82 30.12 244.65 30.18 243.43 C30.27 241.77 30.35 240.1 30.44 238.44 C30.48 237.55 30.53 236.67 30.57 235.76 C30.83 230.76 31.06 225.76 31.25 220.76 C31.3 219.74 31.34 218.71 31.38 217.66 C31.46 215.67 31.53 213.68 31.61 211.69 C31.64 210.78 31.68 209.86 31.72 208.91 C31.75 208.11 31.78 207.3 31.81 206.48 C32 204 32 204 32.5 201.36 C33.07 197.5 33.17 193.72 33.19 189.83 C33.2 189.03 33.21 188.23 33.22 187.4 C33.24 184.76 33.26 182.11 33.27 179.46 C33.28 178.09 33.28 178.09 33.29 176.68 C33.32 171.78 33.34 166.88 33.35 161.98 C33.36 158.01 33.39 154.03 33.43 150.06 C33.7 123.93 32.42 98.77 28 73 C27.8 71.82 27.6 70.65 27.39 69.44 C24.02 50.03 16.65 32.39 7.51 14.99 C5.63 11.41 4.18 7.88 3 4 C2.34 4 1.68 4 1 4 C1.14 4.98 1.28 5.96 1.43 6.96 C4.51 28.51 6.79 49.87 7.81 71.6 C7.98 74.65 8.22 77.67 8.5 80.71 C11.38 113.91 9.55 147.15 7.19 180.31 C7.02 182.73 6.85 185.16 6.69 187.58 C5.89 199.44 4.93 211.28 3.75 223.11 C2.93 231.4 2.3 239.7 1.7 248 C1.62 249.02 1.54 250.03 1.46 251.07 C1.4 251.98 1.33 252.88 1.27 253.81 C1 256 1 256 0 258 C-0.19 259.5 -0.33 261 -0.45 262.5 C-0.52 263.44 -0.6 264.37 -0.67 265.34 C-0.75 266.36 -0.82 267.37 -0.9 268.42 C-0.98 269.47 -1.07 270.53 -1.15 271.61 C-1.51 276.11 -1.85 280.62 -2.2 285.12 C-3.12 297.15 -4.08 309.08 -6 321 C-6.31 323.04 -6.6 325.08 -6.9 327.12 C-7.32 329.97 -7.75 332.82 -8.18 335.66 C-8.39 337.1 -8.61 338.55 -8.82 339.99 C-10.84 353.59 -10.84 353.59 -11.99 358.45 C-13.68 365.55 -14.56 372.84 -15.62 380.06 C-15.86 381.61 -16.09 383.16 -16.32 384.71 C-16.88 388.47 -17.44 392.24 -18 396 C-18.33 396 -18.66 396 -19 396 C-18.65 386.61 -17.43 377.41 -16.06 368.12 C-15.89 366.96 -15.72 365.8 -15.55 364.6 C-14.14 355.28 -14.14 355.28 -13 351 C-11.49 345.39 -10.82 339.62 -10 333.88 C-9.84 332.74 -9.67 331.61 -9.5 330.44 C-9.16 328.11 -8.83 325.79 -8.5 323.46 C-8.18 321.27 -7.85 319.08 -7.5 316.9 C-5.63 304.92 -4.86 292.83 -3.94 280.75 C-3.6 276.31 -3.25 271.86 -2.9 267.42 C-2.79 265.9 -2.79 265.9 -2.67 264.34 C-2.6 263.4 -2.52 262.47 -2.45 261.5 C-2.39 260.68 -2.32 259.86 -2.26 259.01 C-2 257 -2 257 -1 255 C-0.73 252.21 -0.5 249.44 -0.32 246.65 C-0.26 245.81 -0.2 244.96 -0.13 244.09 C0.06 241.37 0.25 238.66 0.44 235.94 C1.18 225.25 1.97 214.61 3.29 203.98 C4.11 197.29 4.62 190.6 5.06 183.88 C5.14 182.76 5.22 181.65 5.3 180.5 C5.56 176.67 5.79 172.83 6 169 C6.04 168.2 6.09 167.39 6.13 166.57 C6.95 151.31 7.19 136.08 7.19 120.8 C7.19 117.07 7.21 113.34 7.22 109.6 C7.26 96.04 6.79 82.67 5.46 69.17 C4.98 64.22 4.8 59.29 4.69 54.31 C4.3 42.32 2.41 30.47 0.64 18.62 C0.47 17.44 0.47 17.44 0.29 16.23 C0.08 14.75 -0.14 13.27 -0.38 11.78 C-0.98 7.61 -0.92 4.12 0 0 Z " fill="#FCF0F2" transform="translate(2880,44)"/>
<path d="M0 0 C1.76 5.29 -1.69 10.16 -4 15 C-5.88 18.42 -7.92 21.7 -10 25 C-11.54 27.62 -13.08 30.24 -14.61 32.87 C-16 35 -16 35 -17.41 36.33 C-19.9 38.95 -21.48 42.13 -23.25 45.25 C-26.59 50.96 -29.9 55.71 -35 60 C-35.6 60.53 -36.2 61.06 -36.82 61.61 C-38.13 62.77 -39.45 63.91 -40.77 65.05 C-43.38 67.33 -45.9 69.7 -48.44 72.06 C-52.34 75.63 -56.26 78.64 -60.71 81.47 C-64.29 83.86 -67.54 86.62 -70.84 89.38 C-73.18 91.34 -75.57 93.24 -77.98 95.12 C-91.79 105.06 -91.79 105.06 -99 119.62 C-99 120.74 -99 121.85 -99 123 C-99.66 123 -100.32 123 -101 123 C-101.58 118.47 -101.87 115.52 -99.57 111.49 C-94.09 104.48 -87.38 97.15 -79.44 92.94 C-75.6 90.77 -72.76 88.18 -69.52 85.21 C-66.76 82.79 -63.89 80.62 -60.94 78.44 C-53.37 72.83 -46.73 66.77 -40.15 60.04 C-38.31 58.29 -36.67 57.09 -34.5 55.81 C-25.13 49.5 -19.4 34.68 -14 25 C-13.34 25 -12.68 25 -12 25 C-11.89 24.43 -11.79 23.85 -11.68 23.26 C-10.9 20.68 -9.77 19.05 -8.19 16.88 C-4.94 12.17 -2.97 7.33 -1 2 C-0.67 1.34 -0.34 0.68 0 0 Z " fill="#F6D2D8" transform="translate(2979,717)"/>
<path d="M0 0 C0.49 0.49 0.49 0.49 1 1 C0.61 6.63 -1.07 10.92 -3.56 15.94 C-3.92 16.68 -4.28 17.43 -4.65 18.2 C-7.26 23.58 -9.94 28.92 -12.64 34.26 C-14.89 38.72 -17.07 43.21 -19.22 47.73 C-19.5 48.32 -19.79 48.92 -20.08 49.53 C-21.51 52.52 -22.93 55.51 -24.34 58.51 C-26.94 63.95 -29.6 69.17 -32.89 74.22 C-34.35 76.57 -35.51 79.02 -36.67 81.53 C-43.8 96.82 -54.47 109.92 -65 123 C-65.33 122.01 -65.66 121.02 -66 120 C-64.66 118.39 -63.31 116.78 -61.89 115.23 C-58.86 111.65 -56.39 107.7 -53.83 103.77 C-50.61 98.91 -50.61 98.91 -49 97 C-48.34 97 -47.68 97 -47 97 C-46.92 96.47 -46.84 95.95 -46.75 95.41 C-45.72 92.1 -43.85 89.4 -42 86.5 C-36.37 77.45 -32.18 67.78 -28 58 C-27.34 58 -26.68 58 -26 58 C-25.9 57.3 -25.79 56.6 -25.69 55.88 C-24.9 52.58 -23.55 50.01 -22 47 C-18.03 39.28 -14.4 31.48 -10.91 23.53 C-8.44 17.93 -5.84 12.43 -3 7 C-2.34 7 -1.68 7 -1 7 C-1 5.35 -1 3.7 -1 2 C-4.84 2.23 -6.63 3.43 -9.31 6 C-13.1 9.49 -15.93 9.82 -21 10 C-17.82 7.52 -14.51 5.39 -11.06 3.31 C-10.04 2.69 -9.02 2.07 -7.97 1.43 C-4.96 -0.02 -3.28 -0.41 0 0 Z " fill="#F5CDD4" transform="translate(2851,1030)"/>
<path d="M0 0 C0.33 0 0.66 0 1 0 C1.12 1.2 1.25 2.39 1.38 3.62 C1.7 6.37 2.16 8.43 3.12 11.06 C4.22 14.75 3.56 17.19 3 21 C2.22 32.34 2.85 42.72 6.12 53.62 C6.98 56.92 7.24 59.61 7 63 C6.51 63.5 6.51 63.5 6 64 C5.69 69.62 5.69 69.62 7 75 C7.99 75.33 8.98 75.66 10 76 C9.34 76.99 8.68 77.98 8 79 C-1.35 63.88 -2.47 47.29 -2.44 30 C-2.44 29.2 -2.44 28.4 -2.44 27.58 C-2.41 18.2 -1.95 9.21 0 0 Z " fill="#D32542" transform="translate(2590,833)"/>
<path d="M0 0 C1.01 3.95 0.92 7.06 0.33 11.08 C0.16 12.24 -0.01 13.4 -0.19 14.6 C-0.47 16.41 -0.47 16.41 -0.75 18.25 C-0.92 19.44 -1.09 20.63 -1.27 21.86 C-2.12 27.56 -3.1 32.99 -5.07 38.42 C-6.33 41.91 -7.44 45.46 -8.56 49 C-9.03 50.48 -9.5 51.96 -9.98 53.44 C-10.71 55.72 -11.44 58 -12.16 60.29 C-14.73 68.38 -17.34 76.32 -21 84 C-21.49 85.18 -21.98 86.36 -22.48 87.58 C-24.19 91.43 -26.16 95.04 -28.25 98.69 C-28.64 99.38 -29.04 100.07 -29.44 100.78 C-30.24 102.18 -31.04 103.58 -31.85 104.98 C-32.93 106.87 -33.98 108.77 -35.04 110.67 C-35.64 111.75 -36.25 112.83 -36.88 113.94 C-37.41 114.9 -37.94 115.85 -38.49 116.84 C-40 119 -40 119 -43 120 C-41.3 115.27 -38.86 111.04 -36.38 106.69 C-35.74 105.58 -35.74 105.58 -35.1 104.44 C-34.07 102.63 -33.04 100.81 -32 99 C-31.34 99 -30.68 99 -30 99 C-29.88 98.43 -29.76 97.86 -29.63 97.27 C-28.97 94.9 -28.06 92.93 -26.94 90.75 C-26.58 90.04 -26.21 89.34 -25.84 88.61 C-25.42 87.81 -25.42 87.81 -25 87 C-24.34 87 -23.68 87 -23 87 C-22.89 86.03 -22.79 85.06 -22.68 84.05 C-22.03 79.56 -20.65 75.41 -19.19 71.12 C-18.94 70.37 -18.69 69.62 -18.44 68.85 C-17.13 64.99 -15.7 61.27 -14 57.57 C-11.82 52.77 -10.3 47.88 -8.88 42.81 C-8.62 41.9 -8.36 40.99 -8.09 40.06 C-6.08 32.75 -4.74 25.55 -4 18 C-3.34 18 -2.68 18 -2 18 C-1.67 12.72 -1.34 7.44 -1 2 C-10.19 5.67 -18.58 10.15 -26.72 15.78 C-27.47 16.18 -28.23 16.58 -29 17 C-29.99 16.67 -30.98 16.34 -32 16 C-31.36 15.62 -30.72 15.24 -30.06 14.85 C-27.14 13.13 -24.23 11.41 -21.31 9.69 C-20.31 9.09 -19.3 8.5 -18.26 7.88 C-17.28 7.31 -16.31 6.73 -15.3 6.14 C-14.41 5.61 -13.51 5.08 -12.59 4.53 C-10.82 3.49 -9.08 2.41 -7.34 1.32 C-4.67 -0.19 -3.02 -0.26 0 0 Z " fill="#F4CAD1" transform="translate(2955,807)"/>
<path d="M0 0 C0.9 0.53 0.9 0.53 1.81 1.06 C4.11 2.33 4.11 2.33 7 1 C10.26 10.41 10.26 10.41 11 15 C11.99 15 12.98 15 14 15 C16.8 17.72 17.95 19.18 18.19 23.12 C18.09 24.55 18.09 24.55 18 26 C18.33 26.99 18.66 27.98 19 29 C18.01 29 17.02 29 16 29 C16.36 29.94 16.72 30.88 17.09 31.85 C17.56 33.11 18.03 34.37 18.5 35.62 C18.96 36.85 19.43 38.08 19.91 39.35 C20.95 42.82 21.3 45.41 21 49 C20.67 49.33 20.34 49.66 20 50 C13.27 49.63 7.87 48.09 1.69 45.5 C0.13 44.86 -1.43 44.23 -2.99 43.59 C-3.66 43.31 -4.34 43.03 -5.04 42.74 C-7 41.93 -7 41.93 -9.19 41.59 C-9.79 41.39 -10.38 41.2 -11 41 C-11.49 39.51 -11.49 39.51 -12 38 C-8.5 39.11 -5.09 40.34 -1.69 41.73 C-0.92 42.04 -0.16 42.35 0.63 42.66 C2.21 43.31 3.79 43.95 5.37 44.61 C9.75 46.37 13.19 47.42 18 47 C20.25 40.26 15.22 32.25 12.21 26.15 C10.84 23.43 9.45 20.73 8.05 18.03 C6.35 14.74 4.67 11.43 3 8.12 C2.42 6.99 1.84 5.86 1.25 4.7 C0 2 0 2 0 0 Z " fill="#D42642" transform="translate(2599,912)"/>
<path d="M0 0 C1.28 3.84 0.12 5.31 -1.6 8.8 C-2 9.59 -2.4 10.37 -2.81 11.19 C-6.42 18.55 -9.72 25.97 -12.81 33.56 C-16.82 43.35 -21.17 52.95 -25.66 62.52 C-29.21 70.14 -32.46 77.82 -35.41 85.68 C-37.15 90.23 -39.14 94.02 -42 98 C-45.79 103.38 -48.11 108.86 -50.54 114.95 C-52 118 -52 118 -55 120 C-50.57 108.73 -45.52 97.77 -40 87 C-38.73 84.47 -37.47 81.95 -36.21 79.42 C-35.41 77.81 -34.59 76.21 -33.75 74.61 C-30.8 68.89 -28.44 63.07 -26.19 57.04 C-24.95 53.87 -23.49 50.92 -21.9 47.91 C-20.54 45.04 -19.68 42.03 -18.81 38.98 C-18 37 -18 37 -16.58 35.68 C-14.64 33.62 -13.88 31.7 -12.84 29.07 C-12.46 28.11 -12.08 27.15 -11.68 26.16 C-11.29 25.16 -10.9 24.16 -10.5 23.12 C-9.72 21.15 -8.94 19.17 -8.16 17.2 C-7.81 16.32 -7.47 15.44 -7.12 14.54 C-5.94 11.87 -4.53 9.48 -3 7 C-2.41 5.74 -1.84 4.47 -1.31 3.19 C-0.88 2.14 -0.45 1.08 0 0 Z " fill="#FAE8EB" transform="translate(2660,1136)"/>
<path d="M0 0 C0.99 0.49 0.99 0.49 2 1 C-6.58 13.24 -16.02 24.88 -26 36 C-26.92 37.07 -26.92 37.07 -27.86 38.17 C-33.14 44.24 -38.86 49.71 -44.77 55.17 C-49.45 59.51 -54.01 63.96 -58.5 68.5 C-62.52 72.56 -66.55 76.51 -70.91 80.2 C-73.83 82.72 -76.66 85.33 -79.5 87.94 C-80.31 88.68 -80.31 88.68 -81.14 89.45 C-82.43 90.63 -83.71 91.81 -85 93 C-85.66 92.67 -86.32 92.34 -87 92 C-85.5 90.48 -84 88.96 -82.5 87.44 C-81.66 86.59 -80.83 85.74 -79.97 84.87 C-77.13 82.06 -74.12 79.47 -71.11 76.85 C-67.56 73.73 -64.12 70.49 -60.69 67.25 C-59.95 66.55 -59.21 65.86 -58.45 65.14 C-53.31 60.29 -48.3 55.34 -43.34 50.3 C-41.28 48.27 -39.17 46.41 -36.94 44.56 C-29.62 38.31 -23.65 30.18 -18.16 22.33 C-17.58 21.67 -17.58 21.67 -17 21 C-16.34 21 -15.68 21 -15 21 C-14.59 20.12 -14.59 20.12 -14.17 19.23 C-13.02 17.05 -11.77 15.3 -10.21 13.4 C-9.68 12.74 -9.15 12.09 -8.61 11.41 C-7.78 10.4 -7.78 10.4 -6.94 9.38 C-5.84 8.03 -4.75 6.68 -3.65 5.34 C-3.17 4.74 -2.68 4.15 -2.18 3.54 C-0.92 1.99 -0.92 1.99 0 0 Z " fill="#F5D0D6" transform="translate(2783,1153)"/>
<path d="M0 0 C1.31 3.94 0.34 5.19 -1.27 8.96 C-1.77 10.16 -2.26 11.35 -2.77 12.58 C-3.57 14.46 -4.36 16.35 -5.17 18.22 C-8.49 25.97 -10.63 32.7 -10.78 41.18 C-11.07 44.93 -12.34 47.79 -14.06 51.1 C-15.02 53.05 -15.55 54.88 -16 57 C-16.66 57 -17.32 57 -18 57 C-18.33 58.32 -18.66 59.64 -19 61 C-19.66 61 -20.32 61 -21 61 C-21 61.66 -21 62.32 -21 63 C-21.43 63.39 -21.86 63.78 -22.3 64.18 C-24.74 66.8 -25.86 69.92 -27.19 73.19 C-27.46 73.84 -27.73 74.5 -28.01 75.17 C-28.68 76.78 -29.34 78.39 -30 80 C-31.36 75.91 -30.16 74.45 -28.42 70.54 C-27.84 69.2 -27.25 67.86 -26.67 66.52 C-26.36 65.82 -26.04 65.11 -25.72 64.38 C-19.88 51.17 -14.55 37.84 -9.73 24.23 C-6.8 15.99 -3.53 7.99 0 0 Z " fill="#E78A99" transform="translate(2830,229)"/>
<path d="M0 0 C0.33 0 0.66 0 1 0 C1.11 9.49 0.99 18.95 0.56 28.44 C0.52 29.35 0.48 30.27 0.44 31.22 C0.4 32.07 0.36 32.93 0.32 33.81 C0.28 34.57 0.24 35.33 0.21 36.11 C0 38 0 38 -1 40 C-1.16 42.75 -1.28 45.5 -1.38 48.25 C-1.7 55.79 -2.41 63.21 -3.44 70.69 C-3.56 71.59 -3.68 72.5 -3.81 73.44 C-4.46 78 -5.31 82.4 -6.49 86.85 C-7.57 91.41 -8.21 96.06 -8.94 100.69 C-12.64 123.41 -12.64 123.41 -17 134 C-17.33 134 -17.66 134 -18 134 C-17.36 126.47 -15.8 119.33 -14 112 C-13.34 112 -12.68 112 -12 112 C-11.89 111.03 -11.78 110.06 -11.67 109.05 C-10.29 97.01 -8.67 85.01 -7 73 C-6.34 73 -5.68 73 -5 73 C-5.02 71.82 -5.04 70.65 -5.06 69.44 C-5.11 66.84 -4.92 64.49 -4.53 61.91 C-3.86 56.96 -3.65 52.04 -3.44 47.06 C-3.39 46.09 -3.35 45.12 -3.31 44.12 C-3.2 41.75 -3.1 39.37 -3 37 C-2.34 37 -1.68 37 -1 37 C-1.01 36.12 -1.01 36.12 -1.02 35.22 C-1.11 23.43 -1.02 11.75 0 0 Z " fill="#F2BDC6" transform="translate(3012,540)"/>
<path d="M0 0 C0.33 0 0.66 0 1 0 C6.77 19.08 8.65 37.02 8.12 56.94 C8.1 57.96 8.08 58.98 8.05 60.02 C7.59 78 5.04 94.52 0.06 111.81 C-0.27 113.04 -0.61 114.26 -0.95 115.53 C-1.29 116.7 -1.62 117.87 -1.96 119.08 C-2.41 120.65 -2.41 120.65 -2.86 122.25 C-4.11 125.26 -5.55 126.87 -8 129 C-7.59 127.8 -7.18 126.6 -6.76 125.36 C-4.65 119.03 -2.75 112.65 -0.88 106.25 C-0.52 105.06 -0.16 103.88 0.21 102.66 C2.29 95.53 3.5 88.86 3.82 81.44 C4 79 4 79 5 78 C5.12 76.59 5.17 75.17 5.19 73.75 C5.21 72.85 5.22 71.94 5.24 71.01 C5.29 66.75 5.33 62.5 5.35 58.25 C5.37 56.04 5.39 53.83 5.43 51.62 C5.68 37.4 4.58 24.51 1.08 10.71 C0.17 7.06 -0.25 3.79 0 0 Z " fill="#F3C3CA" transform="translate(3018,323)"/>
<path d="M0 0 C0.66 0 1.32 0 2 0 C0.42 4.84 -2.35 8.48 -5.38 12.5 C-5.86 13.15 -6.34 13.8 -6.84 14.47 C-8.86 17.2 -10.89 19.88 -13.09 22.47 C-15.59 25.78 -17.36 29.29 -19.19 33 C-19.54 33.7 -19.9 34.4 -20.26 35.12 C-22.94 40.32 -22.94 40.32 -24 46 C-22.55 47.64 -22.55 47.64 -21 49 C-12.52 46.89 -5.68 43.24 1.76 38.76 C6.82 35.84 10.13 34.33 16 35 C16 35.33 16 35.66 16 36 C15.11 36.27 14.23 36.54 13.31 36.81 C10.2 37.93 7.81 39.29 5 41 C3.34 41.72 1.68 42.43 0 43.11 C-2.32 44.14 -4.51 45.35 -6.75 46.56 C-12 49.25 -17.18 50.26 -23 51 C-24.89 48.65 -25.94 47.32 -26.5 44.31 C-25.9 40.37 -24.49 37.84 -22.46 34.45 C-20.99 32.05 -20.99 32.05 -19.82 29.64 C-15.13 20.27 -8.62 12.12 -2.3 3.8 C-0.95 2.03 -0.95 2.03 0 0 Z " fill="#F2C1C9" transform="translate(2998,472)"/>
<path d="M0 0 C0.33 0.66 0.66 1.32 1 2 C1.99 2.33 2.98 2.66 4 3 C5.38 5.36 6.59 7.66 7.75 10.12 C8.27 11.2 8.27 11.2 8.81 12.3 C9.88 14.53 10.94 16.77 12 19 C12.62 20.29 13.24 21.58 13.87 22.87 C15.63 26.56 17.33 30.27 19 34 C19.54 35.18 20.08 36.36 20.63 37.57 C25.03 47.79 27.11 58.07 29 69 C28.34 68.67 27.68 68.34 27 68 C26.61 66.25 26.23 64.5 25.91 62.73 C22.89 45.88 15.44 30.08 7.51 15 C5.63 11.41 4.18 7.88 3 4 C2.34 4 1.68 4 1 4 C1 7.3 1 10.6 1 14 C0.67 14 0.34 14 0 14 C-0.2 12.23 -0.38 10.46 -0.56 8.69 C-0.67 7.7 -0.77 6.72 -0.88 5.7 C-1 3 -1 3 0 0 Z " fill="#F7D8DD" transform="translate(2880,44)"/>
<path d="M0 0 C0.66 0.33 1.32 0.66 2 1 C1.51 1.49 1.01 1.98 0.5 2.48 C-1.75 4.71 -4 6.95 -6.25 9.19 C-7.03 9.96 -7.8 10.73 -8.61 11.52 C-15.61 17.68 -15.61 17.68 -19.38 25.69 C-19.2 28.19 -19.2 28.19 -17 30 C-11.61 30.76 -8.21 28.75 -3.81 25.94 C-1.57 24.52 0.64 23.24 3 22 C3.99 22.33 4.98 22.66 6 23 C-0.75 27 -0.75 27 -3 27 C-3 27.66 -3 28.32 -3 29 C-8.18 31.65 -13.14 33.22 -19 32 C-21.47 28.29 -21.78 25.3 -21 21 C-18.07 16.51 -14.2 13.34 -10.14 9.88 C-6.59 6.76 -3.3 3.38 0 0 Z " fill="#F6D3D9" transform="translate(2824,1018)"/>
<path d="M0 0 C0.49 0.99 0.49 0.99 1 2 C-2.51 10.16 -8.86 16.79 -14.63 23.41 C-16.68 25.79 -18.65 28.24 -20.62 30.69 C-23.66 34.4 -26.73 38.07 -29.88 41.69 C-30.59 42.52 -31.31 43.35 -32.05 44.2 C-34 46 -34 46 -37 46 C-36.23 45.11 -35.45 44.21 -34.66 43.29 C-33.6 42.07 -32.55 40.85 -31.5 39.62 C-30.96 38.99 -30.41 38.36 -29.85 37.71 C-25.93 33.14 -22.17 28.48 -18.52 23.7 C-18.02 23.14 -17.52 22.58 -17 22 C-16.34 22 -15.68 22 -15 22 C-14.64 21.17 -14.64 21.17 -14.27 20.33 C-12.7 17.46 -10.75 15.18 -8.62 12.69 C-5.23 8.61 -2.41 4.71 0 0 Z " fill="#F3C4CC" transform="translate(2911,927)"/>
<path d="M0 0 C0.66 0.33 1.32 0.66 2 1 C-0.66 3.69 -3.33 6.38 -6 9.06 C-7.12 10.19 -7.12 10.19 -8.25 11.34 C-12.44 15.54 -16.69 19.58 -21.21 23.43 C-23.1 25.09 -24.87 26.83 -26.62 28.62 C-29.62 31.65 -32.55 34.49 -36 37 C-36.99 36.67 -37.98 36.34 -39 36 C-38.11 35.22 -38.11 35.22 -37.2 34.42 C-31.41 29.27 -25.92 23.96 -20.54 18.38 C-18 16 -18 16 -15.6 14.6 C-11.93 12.35 -9.17 9.39 -6.19 6.31 C-5.59 5.71 -4.99 5.1 -4.38 4.47 C-2.91 2.99 -1.46 1.49 0 0 Z " fill="#F6D2D8" transform="translate(2869,977)"/>
<path d="M0 0 C0.33 0 0.66 0 1 0 C1.03 2.29 1.05 4.58 1.06 6.88 C1.07 8.15 1.09 9.43 1.1 10.74 C1 14 1 14 0 16 C-0.1 18.64 -0.14 21.24 -0.12 23.88 C-0.12 24.66 -0.12 25.44 -0.12 26.25 C-0.05 35.52 0.46 44.76 1 54 C1.66 54 2.32 54 3 54 C4.35 58.05 3.62 60.79 3 65 C2.67 65 2.34 65 2 65 C-1.31 54.08 -2.59 44.04 -2.41 32.64 C-2.37 30.24 -2.37 27.83 -2.37 25.43 C-2.33 16.77 -1.82 8.5 0 0 Z " fill="#F0B5BF" transform="translate(2590,833)"/>
<path d="M0 0 C0.33 0 0.66 0 1 0 C1.25 0.97 1.49 1.94 1.75 2.94 C2.58 5.91 3.71 8.54 5.06 11.31 C7.25 16.06 8.05 20.77 8 26 C7.51 26.5 7.51 26.5 7 27 C0.27 26.63 -5.13 25.09 -11.31 22.5 C-12.87 21.86 -14.43 21.23 -15.99 20.59 C-16.66 20.31 -17.34 20.03 -18.04 19.74 C-20 18.93 -20 18.93 -22.19 18.59 C-22.79 18.39 -23.38 18.2 -24 18 C-24.33 17.01 -24.66 16.02 -25 15 C-21.5 16.11 -18.09 17.34 -14.69 18.73 C-13.92 19.04 -13.16 19.35 -12.37 19.66 C-10.79 20.31 -9.21 20.95 -7.63 21.61 C-3.25 23.37 0.19 24.42 5 24 C6.25 20.24 5.53 18.88 4.25 15.19 C3.88 14.12 3.51 13.05 3.13 11.95 C2 8.85 2 8.85 0.19 5.44 C-1 3 -1 3 0 0 Z " fill="#F3C5CC" transform="translate(2612,935)"/>
<path d="M0 0 C1.47 4.85 0.52 8.97 -0.44 13.81 C-0.59 14.6 -0.73 15.39 -0.88 16.2 C-1.25 18.14 -1.62 20.07 -2 22 C-3.25 17.78 -2.67 14.04 -2.06 9.75 C-1.91 8.63 -1.91 8.63 -1.76 7.49 C-1.51 5.66 -1.26 3.83 -1 2 C-10.19 5.56 -18.62 10.17 -26.72 15.78 C-27.85 16.38 -27.85 16.38 -29 17 C-29.99 16.67 -30.98 16.34 -32 16 C-31.36 15.62 -30.72 15.24 -30.06 14.85 C-27.14 13.13 -24.23 11.41 -21.31 9.69 C-20.31 9.09 -19.3 8.5 -18.26 7.88 C-17.28 7.31 -16.31 6.73 -15.3 6.14 C-14.41 5.61 -13.51 5.08 -12.59 4.53 C-10.82 3.49 -9.08 2.41 -7.34 1.32 C-4.67 -0.19 -3.02 -0.26 0 0 Z " fill="#F9E1E5" transform="translate(2955,807)"/>
<path d="M0 0 C0.97 3.06 1 5 0.18 8.09 C-0.02 8.87 -0.23 9.65 -0.44 10.45 C-0.66 11.27 -0.89 12.09 -1.12 12.94 C-1.47 14.21 -1.47 14.21 -1.82 15.5 C-3.77 22.53 -6.16 29.27 -9 36 C-9.32 36.77 -9.65 37.55 -9.98 38.35 C-10.64 39.9 -11.32 41.45 -12 43 C-12.33 43 -12.66 43 -13 43 C-12.38 36.18 -10.15 30.01 -7.94 23.56 C-7.56 22.45 -7.18 21.34 -6.79 20.19 C-5.87 17.46 -4.94 14.73 -4 12 C-3.34 12 -2.68 12 -2 12 C-1.94 11.39 -1.88 10.77 -1.82 10.14 C-1.73 9.33 -1.65 8.52 -1.56 7.69 C-1.48 6.89 -1.4 6.09 -1.32 5.26 C-1 3 -1 3 0 0 Z " fill="#F3C5CC" transform="translate(2993,674)"/>
<path d="M0 0 C0.66 0.33 1.32 0.66 2 1 C-8.03 12.01 -17.12 20.41 -31 26 C-32.32 26.56 -33.64 27.13 -34.96 27.7 C-35.96 28.13 -36.97 28.56 -38 29 C-38.33 28.34 -38.66 27.68 -39 27 C-38.18 26.62 -38.18 26.62 -37.35 26.24 C-34.86 25.08 -32.37 23.92 -29.88 22.75 C-29.02 22.35 -28.16 21.96 -27.28 21.55 C-19.08 17.7 -12.93 13.22 -6.62 6.75 C-5.98 6.1 -5.34 5.45 -4.68 4.78 C-3.12 3.19 -1.56 1.6 0 0 Z " fill="#F4CBD1" transform="translate(2691,1248)"/>
<path d="M0 0 C1.28 3.85 0.43 4.8 -1.31 8.38 C-3.24 12.37 -3.24 12.37 -4.92 16.48 C-6 19 -6 19 -7.93 21.86 C-10.85 26.29 -12.58 31.05 -14.54 35.95 C-16 39 -16 39 -19 41 C-14.57 29.73 -9.53 18.77 -4 8 C-3.21 6.42 -2.41 4.83 -1.62 3.25 C-1.09 2.18 -0.55 1.11 0 0 Z " fill="#F2C1C9" transform="translate(2624,1215)"/>
<path d="M0 0 C0.66 0.66 1.32 1.32 2 2 C1.75 4.56 1.75 4.56 1 7 C0.01 7.5 0.01 7.5 -1 8 C-1.57 10.18 -1.89 12.36 -2.24 14.58 C-3.21 17.67 -4.98 19.48 -7 22 C-8.17 24.43 -9.24 26.82 -10.25 29.31 C-10.52 29.96 -10.79 30.6 -11.06 31.27 C-11.72 32.84 -12.36 34.42 -13 36 C-14.39 31.84 -12.72 29.31 -11.04 25.49 C-10.72 24.76 -10.41 24.03 -10.09 23.28 C-9.09 20.95 -8.08 18.63 -7.06 16.31 C-6.38 14.74 -5.7 13.16 -5.03 11.58 C-3.36 7.72 -1.68 3.86 0 0 Z " fill="#EFB2BC" transform="translate(2813,273)"/>
<path d="M0 0 C0.66 0.33 1.32 0.66 2 1 C0.99 1.9 0.99 1.9 -0.05 2.83 C-0.94 3.63 -1.83 4.43 -2.75 5.25 C-3.63 6.04 -4.51 6.83 -5.42 7.64 C-6.7 8.81 -6.7 8.81 -8 10 C-8.72 10.66 -9.44 11.32 -10.19 12 C-12.14 14.16 -13.14 16.07 -14.25 18.75 C-14.59 19.55 -14.92 20.35 -15.27 21.17 C-15.51 21.78 -15.75 22.38 -16 23 C-17.33 19.98 -16.94 18.83 -15.81 15.65 C-15.22 14.41 -14.62 13.17 -14 11.94 C-13.72 11.31 -13.44 10.69 -13.15 10.04 C-10.71 5.1 -8.08 3.76 -3 2 C-2.01 1.34 -1.02 0.68 0 0 Z " fill="#F5CED4" transform="translate(2646,1278)"/>
<path d="M0 0 C0.99 0 1.98 0 3 0 C3.19 1.48 3.38 2.96 3.56 4.44 C3.67 5.26 3.77 6.08 3.88 6.93 C3.92 7.62 3.96 8.3 4 9 C3.67 9.33 3.34 9.66 3 10 C2.69 15.62 2.69 15.62 4 21 C4.99 21.33 5.98 21.66 7 22 C6.34 22.99 5.68 23.98 5 25 C-0.52 16.62 -0.58 9.72 0 0 Z " fill="#DF5F74" transform="translate(2593,887)"/>
<path d="M0 0 C0.66 0.33 1.32 0.66 2 1 C-5.26 8.26 -12.52 15.52 -20 23 C-20.66 22.67 -21.32 22.34 -22 22 C-15 14.22 -7.96 6.81 0 0 Z " fill="#E37687" transform="translate(1610,1294)"/>
<path d="M0 0 C2.95 3.57 4.86 7.49 6.88 11.62 C7.58 13.06 8.28 14.49 8.99 15.93 C9.33 16.62 9.67 17.32 10.02 18.03 C11.71 21.42 13.49 24.75 15.29 28.08 C16 30 16 30 15 33 C12.31 28.01 9.64 23.01 7 18 C6.47 17 6.47 17 5.93 15.98 C4.95 14.1 3.97 12.21 3 10.31 C2.13 8.64 2.13 8.64 1.25 6.93 C0 4 0 4 0 0 Z " fill="#F4C9D0" transform="translate(2963,155)"/>
<path d="M0 0 C0.9 0.53 0.9 0.53 1.81 1.06 C4.11 2.33 4.11 2.33 7 1 C8.12 8.62 8.12 8.62 7 12 C7.66 12.33 8.32 12.66 9 13 C8.01 14.49 8.01 14.49 7 16 C5.83 13.71 4.66 11.42 3.5 9.12 C3.17 8.47 2.83 7.82 2.49 7.15 C0 2.23 0 2.23 0 0 Z " fill="#DC5167" transform="translate(2599,912)"/>
<path d="M0 0 C0.66 0.33 1.32 0.66 2 1 C1.47 2.05 0.94 3.1 0.39 4.18 C-4.12 13.06 -4.12 13.06 -8.25 22.12 C-9.8 25.74 -11.71 28.81 -14 32 C-14.33 31.34 -14.66 30.68 -15 30 C-14.02 27.68 -12.97 25.48 -11.82 23.24 C-11.48 22.58 -11.15 21.92 -10.8 21.23 C-9.73 19.11 -8.65 16.99 -7.56 14.88 C-6.83 13.44 -6.11 12 -5.38 10.57 C-3.6 7.04 -1.8 3.52 0 0 Z " fill="#F5CFD5" transform="translate(2565,1358)"/>
<path d="M0 0 C3.51 4.09 6.06 8.42 8.62 13.12 C9.41 14.54 10.19 15.96 10.98 17.38 C11.32 18.01 11.66 18.63 12.01 19.27 C12.94 20.89 13.97 22.45 15 24 C14.62 26.19 14.62 26.19 14 28 C12.33 24.88 10.66 21.75 9 18.62 C8.52 17.74 8.05 16.85 7.55 15.93 C7.1 15.08 6.65 14.23 6.19 13.35 C5.77 12.57 5.35 11.78 4.92 10.97 C4 9 4 9 4 7 C3.34 7 2.68 7 2 7 C2 6.01 2 5.02 2 4 C1.34 4 0.68 4 0 4 C0 2.68 0 1.36 0 0 Z " fill="#F4C7CF" transform="translate(2943,118)"/>
<path d="M0 0 C1.44 4.32 -0.48 7.17 -2.25 11.12 C-2.72 12.24 -2.72 12.24 -3.2 13.37 C-4.04 15.29 -5.02 17.15 -6 19 C-6.99 19.33 -7.98 19.66 -9 20 C-7.44 15.12 -5.78 10.28 -3.94 5.5 C-3.46 4.25 -3.46 4.25 -2.96 2.97 C-2 1 -2 1 0 0 Z " fill="#F4C9D0" transform="translate(2644,1172)"/>
<path d="M0 0 C0.66 0.33 1.32 0.66 2 1 C-3.61 6.61 -9.22 12.22 -15 18 C-15.66 17.67 -16.32 17.34 -17 17 C-11.63 10.93 -6.33 5.1 0 0 Z " fill="#E47688" transform="translate(2319,796)"/>
<path d="M0 0 C0 0.33 0 0.66 0 1 C-0.89 1.27 -1.77 1.54 -2.69 1.81 C-5.8 2.93 -8.19 4.29 -11 6 C-13.32 7.02 -15.66 8.02 -18 9 C-18.74 9.41 -19.49 9.83 -20.25 10.25 C-22 11 -22 11 -25 10 C-22.16 8.31 -19.3 6.65 -16.44 5 C-15.64 4.52 -14.84 4.05 -14.01 3.55 C-9.04 0.71 -5.73 -0.62 0 0 Z " fill="#F6D7DD" transform="translate(3014,507)"/>
<path d="M0 0 C0 5.04 -4.27 8.22 -7.56 11.75 C-9.73 13.75 -11.38 14.78 -14 16 C-3.6 1.8 -3.6 1.8 0 0 Z " fill="#F9E0E4" transform="translate(2888,958)"/>
<path d="M0 0 C0.66 0.33 1.32 0.66 2 1 C-4.31 6.55 -9.77 8.43 -18 8 C-18.33 6.68 -18.66 5.36 -19 4 C-18.46 4.35 -17.93 4.7 -17.38 5.06 C-14.05 6.37 -12.45 5.98 -9 5 C-6.6 3.73 -4.27 2.39 -1.95 0.96 C-1.31 0.64 -0.66 0.33 0 0 Z " fill="#F0B4BE" transform="translate(2899,836)"/>
<path d="M0 0 C0.93 2.61 1.15 3.64 0.06 6.25 C-0.29 6.83 -0.64 7.4 -1 8 C-1.66 8 -2.32 8 -3 8 C-2.92 8.68 -2.84 9.36 -2.75 10.06 C-3.1 14.17 -4.82 16.52 -7 20 C-7.66 20 -8.32 20 -9 20 C-7.51 15.02 -5.38 10.6 -3 6 C-2.42 4.85 -1.84 3.69 -1.25 2.5 C-0.84 1.67 -0.43 0.85 0 0 Z " fill="#ECA4B0" transform="translate(2599,1294)"/>
<path d="M0 0 C0.66 0.33 1.32 0.66 2 1 C-1.96 4.96 -5.92 8.92 -10 13 C-10.66 12.67 -11.32 12.34 -12 12 C-8.28 7.58 -4.7 3.42 0 0 Z " fill="#E37386" transform="translate(877,1300)"/>
<path d="M0 0 C2.38 0.31 2.38 0.31 5 1 C7 4 7 4 7 7 C5.68 7.33 4.36 7.66 3 8 C0 2.25 0 2.25 0 0 Z " fill="#E06276" transform="translate(2607,928)"/>
<path d="M0 0 C1.24 3.58 0.75 6.34 0 10 C-1.32 10.33 -2.64 10.66 -4 11 C-3.67 8.69 -3.34 6.38 -3 4 C-2.34 4 -1.68 4 -1 4 C-0.67 2.68 -0.34 1.36 0 0 Z " fill="#E16A7C" transform="translate(2801,305)"/>
<path d="M0 0 C0.9 0.31 0.9 0.31 1.81 0.62 C0.4 2.66 -0.74 3.53 -3.17 4.05 C-5.17 4.29 -7.18 4.46 -9.19 4.62 C-2.52 -0.43 -2.52 -0.43 0 0 Z " fill="#E993A1" transform="translate(2839.1875,1035.375)"/>
<path d="M0 0 C0.33 0 0.66 0 1 0 C1.22 6.1 1.01 11.22 -1 17 C-1.33 17 -1.66 17 -2 17 C-2.22 11 -1.51 5.81 0 0 Z " fill="#F2BDC6" transform="translate(2564,987)"/>
<path d="M0 0 C2.5 1.06 2.5 1.06 5 3 C5.31 6.69 5.31 6.69 5 10 C2.36 6.87 1.16 3.91 0 0 Z " fill="#E78897" transform="translate(2599,912)"/>
<path d="M0 0 C0.33 0 0.66 0 1 0 C1.19 4.82 0.76 8.5 -1 13 C-1.66 13 -2.32 13 -3 13 C-2.45 8.43 -1.58 4.33 0 0 Z " fill="#EDA7B2" transform="translate(2815,819)"/>
<path d="M0 0 C1.6 4.01 0.39 7.06 -1 11 C-1.66 11.66 -2.32 12.32 -3 13 C-2.45 8.43 -1.58 4.33 0 0 Z " fill="#F0B3BD" transform="translate(2800,866)"/>
<path d="M0 0 C0.66 0.66 1.32 1.32 2 2 C1.88 4.44 1.88 4.44 1 7 C-1.06 8.81 -1.06 8.81 -3 10 C-2.39 6.44 -1.42 3.32 0 0 Z " fill="#ECA0AC" transform="translate(2813,273)"/>
<path d="M0 0 C2.24 2.88 4.36 5.73 6 9 C5.58 11.16 5.58 11.16 5 13 C4.16 11.4 3.33 9.79 2.5 8.19 C1.8 6.85 1.8 6.85 1.09 5.48 C0 3 0 3 0 0 Z " fill="#F9E3E7" transform="translate(2952,133)"/>
<path d="M0 0 C0.99 0.66 1.98 1.32 3 2 C1.17 1.97 1.17 1.97 -0.69 1.94 C-3.92 1.93 -6.85 2.21 -10 3 C-7.3 -0.82 -4.39 -0.39 0 0 Z " fill="#EFB0BA" transform="translate(2584,948)"/>
<path d="M0 0 C0.33 0 0.66 0 1 0 C1 2.31 1 4.62 1 7 C0.34 7 -0.32 7 -1 7 C-1.33 7.66 -1.66 8.32 -2 9 C-1.12 1.12 -1.12 1.12 0 0 Z " fill="#E98F9D" transform="translate(2573,951)"/>
<path d="" fill="#FFFEFE" transform="translate(0,0)"/>
<path d="" fill="#FFFEFE" transform="translate(0,0)"/>
</svg>
