<?xml version="1.0" standalone="no"?>
<!DOCTYPE svg PUBLIC "-//W3C//DTD SVG 20010904//EN"
 "http://www.w3.org/TR/2001/REC-SVG-20010904/DTD/svg10.dtd">
<svg version="1.0" xmlns="http://www.w3.org/2000/svg"
 width="1024.000000pt" height="1024.000000pt" viewBox="0 0 1024.000000 1024.000000"
 preserveAspectRatio="xMidYMid meet">

<g transform="translate(0.000000,1024.000000) scale(0.100000,-0.100000)"
fill="#D31F3C" stroke="none">
<path d="M4872 10219 c-28 -14 -51 -36 -67 -64 -22 -37 -25 -53 -25 -148 l0
-107 -612 0 c-573 0 -616 -2 -653 -19 -96 -44 -104 -74 -105 -398 l0 -263
-597 0 c-381 0 -612 -4 -635 -10 -48 -14 -97 -55 -114 -97 -12 -27 -14 -734
-14 -4403 l0 -4370 -515 0 -515 0 0 350 0 349 43 11 c309 79 545 323 623 641
42 174 1 809 -81 1254 -110 597 -300 978 -546 1099 -157 76 -320 66 -464 -30
-230 -152 -406 -548 -505 -1139 -55 -324 -82 -628 -84 -920 -1 -246 7 -291 84
-450 103 -214 304 -385 521 -444 l64 -18 3 -352 2 -351 -276 0 c-277 0 -277 0
-320 -25 -47 -28 -84 -90 -84 -143 0 -66 50 -138 113 -161 19 -8 362 -11 1082
-11 720 0 1063 3 1082 11 38 14 83 57 99 96 12 27 14 713 14 4398 l0 4365 593
0 c325 0 610 5 631 10 45 10 81 34 110 74 20 26 21 44 26 314 l5 287 625 5
c604 5 626 6 660 25 59 34 80 91 80 212 l0 103 340 0 340 0 0 -93 c0 -110 10
-151 47 -190 57 -59 27 -57 703 -57 l620 0 0 -170 0 -170 -1452 0 c-1015 0
-1465 -3 -1493 -11 -76 -21 -125 -86 -125 -167 0 -78 55 -144 136 -162 23 -6
925 -10 2166 -10 l2128 0 2 -3563 3 -3563 27 -41 c67 -102 215 -99 285 6 l23
34 0 3676 0 3676 -21 34 c-28 46 -56 68 -106 80 -27 7 -248 11 -637 11 l-596
0 0 269 c0 166 -4 281 -11 298 -15 42 -68 92 -109 103 -21 6 -274 10 -642 10
l-606 0 -4 118 c-3 105 -6 121 -27 151 -13 18 -42 42 -65 52 -38 17 -76 19
-586 19 -535 0 -546 0 -588 -21z m-3953 -6483 c153 -80 307 -511 390 -1091 51
-355 68 -798 36 -905 -54 -174 -183 -304 -354 -354 -62 -18 -193 -21 -261 -5
-136 31 -272 142 -333 270 -51 107 -60 173 -53 379 31 826 223 1569 441 1701
36 23 95 24 134 5z"/>
<path d="M2840 8523 c-37 -14 -74 -49 -91 -87 -18 -40 -19 -165 -19 -4169 0
-3483 2 -4133 14 -4160 16 -39 61 -82 99 -96 41 -16 6915 -15 6989 0 189 39
358 208 397 397 55 262 -111 528 -370 597 -30 8 -91 15 -136 15 l-81 0 -46 64
c-169 237 -488 339 -769 245 -132 -44 -299 -173 -352 -272 l-20 -37 -85 0
c-149 0 -267 -47 -365 -145 -140 -140 -187 -327 -129 -517 5 -17 -16 -18 -350
-18 l-356 0 0 515 0 515 454 0 453 0 33 22 c18 13 43 36 54 51 l21 28 0 3478
0 3478 -29 37 c-54 72 176 66 -2698 65 -1432 0 -2610 -3 -2618 -6z m910 -843
l0 -510 -340 0 -340 0 0 510 0 510 340 0 340 0 0 -510z m1030 0 l0 -510 -340
0 -340 0 0 510 0 510 340 0 340 0 0 -510z m1020 0 l0 -510 -340 0 -340 0 0
510 0 510 340 0 340 0 0 -510z m1030 0 l0 -510 -345 0 -345 0 0 510 0 510 345
0 345 0 0 -510z m1020 0 l0 -510 -340 0 -340 0 0 510 0 510 340 0 340 0 0
-510z m-4100 -1365 l0 -515 -340 0 -340 0 0 515 0 515 340 0 340 0 0 -515z
m1030 0 l0 -515 -340 0 -340 0 0 515 0 515 340 0 340 0 0 -515z m1020 0 l0
-515 -340 0 -340 0 0 515 0 515 340 0 340 0 0 -515z m1025 0 l0 -510 -340 0
-340 0 -3 500 c-1 275 0 506 3 513 3 10 77 12 342 10 l338 -3 0 -510z m1025 0
l0 -515 -340 0 -340 0 0 515 0 515 340 0 340 0 0 -515z m-4100 -1365 l0 -510
-340 0 -340 0 0 510 0 510 340 0 340 0 0 -510z m1030 0 l0 -510 -340 0 -340 0
0 510 0 510 340 0 340 0 0 -510z m1020 0 l0 -510 -340 0 -340 0 0 510 0 510
340 0 340 0 0 -510z m1030 0 l0 -510 -345 0 -345 0 0 510 0 510 345 0 345 0 0
-510z m1020 0 l0 -510 -340 0 -340 0 0 510 0 510 340 0 340 0 0 -510z m-4100
-1365 l0 -515 -340 0 -340 0 0 508 c0 280 3 512 7 515 3 4 156 7 340 7 l333 0
0 -515z m1030 0 l0 -515 -340 0 -340 0 0 515 0 515 340 0 340 0 0 -515z m1020
0 l0 -515 -340 0 -340 0 0 515 0 515 340 0 340 0 0 -515z m1028 -3 l2 -512
-342 2 -343 3 -3 500 c-1 275 0 506 3 513 3 10 77 12 342 10 l338 -3 3 -513z
m1022 3 l0 -515 -340 0 -340 0 0 515 0 515 340 0 340 0 0 -515z m-4100 -1365
l0 -510 -340 0 -340 0 0 510 0 510 340 0 340 0 0 -510z m1030 0 l0 -510 -340
0 -340 0 0 510 0 510 340 0 340 0 0 -510z m1020 0 l0 -510 -340 0 -340 0 0
510 0 510 340 0 340 0 0 -510z m1030 0 l0 -510 -345 0 -345 0 0 510 0 510 345
0 345 0 0 -510z m1020 0 l0 -510 -340 0 -340 0 0 510 0 510 340 0 340 0 0
-510z m-4100 -1365 l0 -515 -340 0 -340 0 0 508 c0 280 3 512 7 515 3 4 156 7
340 7 l333 0 0 -515z m1028 -2 l2 -513 -340 0 -340 0 0 515 0 515 338 -2 337
-3 3 -512z m1022 2 l0 -515 -340 0 -340 0 0 515 0 515 340 0 340 0 0 -515z
m1028 -2 l2 -513 -345 0 -345 0 0 508 c0 280 3 512 7 515 4 4 158 6 342 5
l336 -3 3 -512z m2367 135 c28 -15 69 -46 92 -70 41 -42 93 -137 93 -170 0
-22 55 -85 91 -104 42 -21 107 -17 164 11 61 30 113 31 165 5 131 -67 128
-240 -5 -301 -38 -17 -82 -19 -750 -19 -668 0 -712 2 -750 19 -71 32 -112 104
-100 175 19 123 141 179 260 121 114 -56 223 -12 259 106 38 124 122 213 236
250 14 5 63 7 110 5 68 -2 95 -8 135 -28z"/>
</g>
</svg>
